<svg width="326" height="308" viewBox="0 0 326 308" fill="none" xmlns="http://www.w3.org/2000/svg">
<path d="M45.1 261.024L37.5284 255.81C37.5284 255.81 33.155 262.171 26.4737 257.741C25.1708 256.91 24.1587 255.694 23.578 254.262C22.9972 252.83 22.8766 251.253 23.2328 249.749C23.5153 248.481 24.0936 247.298 24.9205 246.297C25.7475 245.295 26.7996 244.504 27.9909 243.986C30.7261 242.754 34.8645 242.768 39.3519 247.177L51.0903 230.083L43.6042 224.933L36.7307 234.905C36.7307 234.905 24.3654 230.396 16.402 241.963C8.78769 253.032 16.9434 262.435 21.1957 265.355C24.4437 267.641 36.0184 274.472 45.1 261.024Z" fill="#EBEBEB"/>
<path d="M45.899 221.381L53.4922 226.606L58.3735 219.511L50.7803 214.287L45.899 221.381Z" fill="#EBEBEB"/>
<path d="M77.3373 281.958L81.3546 280.897C81.2353 280.44 81.2081 279.964 81.2745 279.496C81.341 279.028 81.4998 278.579 81.7418 278.173C81.9837 277.767 82.304 277.414 82.6838 277.133C83.0637 276.852 83.4956 276.65 83.9545 276.538C84.6237 276.334 85.3398 276.345 86.0026 276.569C86.6655 276.792 87.2419 277.217 87.6512 277.784C88.003 278.254 88.2387 278.8 88.339 279.378C88.4393 279.956 88.4013 280.55 88.2282 281.111C87.8435 282.414 86.6184 283.832 83.7835 284.067L86.1697 293.134L90.1442 292.087L88.7196 286.773C90.2224 285.862 91.3846 284.483 92.028 282.848C92.6714 281.212 92.7603 279.411 92.2811 277.72C90.7283 271.844 85.0941 271.865 82.8433 272.464C81.1552 272.919 75.3928 274.885 77.3373 281.958Z" fill="#EBEBEB"/>
<path d="M90.7058 293.928L86.6699 294.992L87.6639 298.76L91.6998 297.695L90.7058 293.928Z" fill="#EBEBEB"/>
<path d="M144.108 28.1567C146.14 26.9185 148.33 25.9601 150.618 25.3075L151.957 18.8969L162.848 18.7046L164.415 25.1152C166.725 25.6811 168.948 26.5555 171.025 27.715L176.531 24.1037L184.366 31.6682L180.954 37.2953C182.188 39.3322 183.146 41.5238 183.803 43.8127L190.25 45.1518L190.435 56.0426L184.024 57.6097C183.455 59.9187 182.581 62.1417 181.424 64.2197L185.028 69.7256L177.464 77.5608L171.837 74.1489C169.802 75.3872 167.61 76.3455 165.32 76.9981L163.98 83.4514L153.09 83.6366L151.523 77.226C149.211 76.6633 146.988 75.7887 144.913 74.6262L139.407 78.2375L131.571 70.673L134.983 65.0459C133.745 63.0113 132.787 60.8191 132.134 58.5285L125.724 57.1894L125.531 46.2986L131.942 44.7315C132.497 42.4078 133.365 40.1699 134.52 38.0788L130.909 32.5728L138.473 24.7377L144.108 28.1567ZM149.913 42.6659C148.31 44.3303 147.238 46.4325 146.83 48.7066C146.423 50.9807 146.698 53.3246 147.623 55.4419C148.548 57.5592 150.079 59.3548 152.024 60.6016C153.969 61.8485 156.24 62.4906 158.55 62.4468C160.86 62.403 163.105 61.6752 165.001 60.3554C166.898 59.0357 168.36 57.1833 169.203 55.0324C170.047 52.8816 170.234 50.5289 169.74 48.2719C169.247 46.0149 168.095 43.955 166.431 42.3525C164.198 40.2053 161.204 39.0322 158.107 39.091C155.01 39.1497 152.063 40.4355 149.913 42.6659Z" fill="#F5F5F5"/>
<path d="M98.5213 5.44898C99.6952 4.74398 100.957 4.19788 102.275 3.82497L103.044 0.106841L109.32 0L110.224 3.68252C111.554 4.00761 112.833 4.51076 114.028 5.17832L117.197 3.09844L121.685 7.45051L119.719 10.6914C120.428 11.8642 120.976 13.1267 121.35 14.4452L125.061 15.2144L125.168 21.4897L121.485 22.4085C121.162 23.7383 120.658 25.0179 119.99 26.2121L122.069 29.3818L117.71 33.8977L114.469 31.9318C113.297 32.6407 112.034 33.1893 110.716 33.5629L109.918 37.2668L103.643 37.3808L102.795 33.6982C101.466 33.3675 100.187 32.8621 98.9914 32.1953L95.8217 34.2752L91.3058 29.916L93.2432 26.6822C92.5331 25.5126 91.9844 24.2523 91.6121 22.9356L87.9011 22.1592L87.7871 15.884L91.4768 14.9865C91.8006 13.6544 92.3038 12.3724 92.9726 11.1758L90.8927 8.00609L95.2519 3.49732L98.5213 5.44898ZM101.862 13.8112C100.932 14.7674 100.308 15.9781 100.067 17.2898C99.8271 18.6015 99.9817 19.955 100.512 21.1786C101.042 22.4023 101.923 23.4409 103.045 24.1627C104.166 24.8846 105.476 25.2571 106.81 25.2331C108.143 25.209 109.439 24.7895 110.534 24.0277C111.628 23.2659 112.472 22.1962 112.957 20.9542C113.443 19.7123 113.549 18.354 113.261 17.0519C112.974 15.7497 112.306 14.5623 111.342 13.6403C110.058 12.4035 108.335 11.7268 106.553 11.7589C104.77 11.7909 103.073 12.5291 101.833 13.8112H101.862Z" fill="#EBEBEB"/>
<path d="M298.723 121.922C299.894 121.215 301.154 120.666 302.47 120.291L303.246 116.58L309.514 116.473L310.419 120.155C311.751 120.479 313.033 120.982 314.23 121.651L317.399 119.571L321.908 123.931L319.942 127.171C320.651 128.344 321.2 129.607 321.573 130.925L325.291 131.695L325.398 137.97L321.716 138.874C321.384 140.202 320.882 141.48 320.22 142.678L322.293 145.848L317.941 150.364L314.7 148.398C313.527 149.107 312.265 149.655 310.946 150.029L310.17 153.74L303.902 153.854L302.997 150.164C301.667 149.84 300.388 149.337 299.193 148.668L296.017 150.748L291.508 146.389L293.474 143.148C292.764 141.976 292.215 140.713 291.843 139.394L288.132 138.625L288.018 132.35L291.7 131.445C292.032 130.118 292.534 128.839 293.196 127.642L291.123 124.472L295.475 119.956L298.723 121.922ZM302.064 130.277C301.139 131.234 300.518 132.445 300.281 133.755C300.043 135.065 300.2 136.416 300.73 137.637C301.261 138.858 302.141 139.894 303.261 140.615C304.38 141.336 305.689 141.708 307.02 141.685C308.351 141.662 309.645 141.245 310.739 140.486C311.834 139.728 312.678 138.661 313.166 137.423C313.654 136.184 313.764 134.829 313.482 133.527C313.2 132.226 312.538 131.038 311.58 130.113C310.295 128.875 308.572 128.197 306.788 128.228C305.004 128.258 303.305 128.995 302.064 130.277Z" fill="#EBEBEB"/>
<path d="M315.612 307.544C315.612 307.65 248.066 307.729 164.771 307.729C81.4763 307.729 13.916 307.65 13.916 307.544C13.916 307.437 81.4407 307.358 164.771 307.358C248.101 307.358 315.612 307.444 315.612 307.544Z" fill="#263238"/>
<path d="M282.76 307.024L181.616 306.967C175.773 306.963 170.171 304.639 166.042 300.507C161.912 296.374 159.592 290.771 159.592 284.929L159.642 31.3548C159.655 25.5073 161.987 19.9037 166.127 15.7735C170.266 11.6433 175.875 9.32381 181.723 9.32382L282.867 9.38793C288.71 9.3917 294.311 11.7152 298.441 15.8478C302.571 19.9803 304.891 25.5836 304.891 31.4261L304.841 285C304.841 287.897 304.27 290.765 303.159 293.441C302.049 296.117 300.421 298.547 298.37 300.593C296.319 302.639 293.885 304.26 291.206 305.364C288.527 306.467 285.657 307.031 282.76 307.024Z" fill="#455A64"/>
<path d="M282.724 18.3271H263.115C261.822 18.357 260.594 18.899 259.7 19.8339C258.806 20.7688 258.321 22.0202 258.349 23.3131V26.8746C258.378 28.1675 257.892 29.4189 256.999 30.3538C256.105 31.2887 254.877 31.8307 253.584 31.8606H215.356C214.064 31.8288 212.838 31.286 211.946 30.3513C211.054 29.4166 210.569 28.1663 210.598 26.8746V23.3131C210.626 22.0202 210.141 20.7688 209.247 19.8339C208.354 18.899 207.125 18.357 205.833 18.3271H181.772C177.687 18.3233 173.768 19.9393 170.873 22.8207C167.978 25.7021 166.344 29.6139 166.329 33.6983L166.279 281.232C166.287 285.319 167.915 289.237 170.808 292.125C173.7 295.014 177.62 296.637 181.707 296.639L282.66 296.696C284.687 296.696 286.694 296.298 288.567 295.523C290.44 294.749 292.142 293.612 293.576 292.18C295.01 290.747 296.148 289.046 296.924 287.174C297.701 285.301 298.101 283.294 298.102 281.267L298.145 33.7339C298.139 29.647 296.512 25.7294 293.621 22.8409C290.73 19.9524 286.811 18.329 282.724 18.3271Z" fill="white"/>
<path d="M298.139 70.3525V33.4774C298.066 29.4365 296.41 25.5854 293.528 22.7522C290.645 19.9191 286.766 18.3302 282.725 18.3271H263.115C262.475 18.341 261.844 18.481 261.257 18.7392C260.671 18.9974 260.141 19.3687 259.699 19.8318C259.256 20.295 258.909 20.8408 258.678 21.4382C258.446 22.0356 258.335 22.6727 258.35 23.3131V26.8746C258.379 28.1675 257.893 29.4189 257 30.3538C256.106 31.2887 254.878 31.8307 253.585 31.8606H215.357C214.065 31.8288 212.839 31.286 211.947 30.3513C211.055 29.4166 210.57 28.1663 210.599 26.8746V23.3131C210.627 22.0202 210.141 20.7688 209.248 19.8339C208.354 18.899 207.126 18.357 205.833 18.3271H181.772C177.688 18.3233 173.769 19.9393 170.874 22.8207C167.979 25.7021 166.345 29.6139 166.33 33.6982V70.4664H298.139V70.3525Z" fill="#EBEBEB"/>
<path d="M193.211 120.369C202.035 120.369 209.188 113.232 209.188 104.428C209.188 95.6243 202.035 88.4873 193.211 88.4873C184.387 88.4873 177.234 95.6243 177.234 104.428C177.234 113.232 184.387 120.369 193.211 120.369Z" fill="#E0E0E0"/>
<path d="M185.746 108.417L189.934 108.061L200.149 109.785L201.352 117.47L201.181 118.368C198.88 119.666 196.295 120.377 193.653 120.438C191.012 120.499 188.396 119.908 186.038 118.717L185.746 108.417Z" fill="#455A64"/>
<path d="M197.963 109.664C198.976 109.516 200.01 109.655 200.947 110.067C201.884 110.479 202.686 111.146 203.262 111.993C203.954 112.959 204.589 113.965 205.164 115.006C203.497 116.815 202.144 118.19 199.836 118.994L197.963 109.664Z" fill="#455A64"/>
<path d="M185.747 108.417C185.747 108.417 182.984 108.759 181.915 111.117C180.847 113.474 180.598 114.208 180.598 114.208C182.022 115.932 183.846 117.969 186.075 118.731C186.075 118.731 186.581 112.79 186.645 111.117C186.723 109.307 186.795 108.367 185.747 108.417Z" fill="#455A64"/>
<path d="M188.268 93.3166C188.964 92.4248 189.852 91.7007 190.865 91.1977C191.879 90.6948 192.992 90.4257 194.123 90.4104C195.096 90.4103 196.061 90.5839 196.972 90.9233C197.932 91.1505 198.78 91.7108 199.366 92.5046C200.092 93.4378 200.567 94.5411 200.747 95.7098C200.915 96.9059 200.972 98.1147 200.918 99.3211C200.86 100.536 200.468 101.712 199.786 102.719L196.716 103.246C195.023 103.381 193.32 103.29 191.652 102.975C189.965 102.651 188.474 101.673 187.506 100.254C186.274 98.2527 186.787 95.14 188.268 93.3166Z" fill="#263238"/>
<path d="M185.306 102.185C185.337 101.837 185.447 101.501 185.627 101.203C185.807 100.904 186.053 100.65 186.346 100.461C186.645 100.281 186.994 100.2 187.342 100.231C187.69 100.262 188.02 100.402 188.283 100.632L188.768 101.202C189.141 101.374 189.452 101.659 189.656 102.017C189.86 102.374 189.948 102.786 189.907 103.196C189.854 103.606 189.683 103.992 189.415 104.307C189.147 104.621 188.793 104.852 188.397 104.97C188.001 105.082 187.583 105.09 187.182 104.994C186.782 104.898 186.413 104.701 186.111 104.421C185.814 104.135 185.588 103.784 185.448 103.396C185.309 103.009 185.26 102.594 185.306 102.185Z" fill="#263238"/>
<path d="M185.91 104.279C185.795 104.098 185.738 103.887 185.746 103.673C185.849 103.155 186.096 102.676 186.459 102.291C186.802 101.888 187.221 101.554 187.691 101.308C188.047 101.116 188.296 101.045 188.289 101.023C188.062 101.04 187.841 101.106 187.641 101.216C187.139 101.439 186.695 101.775 186.345 102.199C186.148 102.413 185.98 102.653 185.846 102.911C185.729 103.132 185.661 103.374 185.647 103.623C185.643 103.795 185.69 103.963 185.782 104.108C185.846 104.25 185.91 104.321 185.91 104.279Z" fill="#455A64"/>
<path d="M196.687 109.115V106.266C196.687 106.266 199.187 105.988 199.885 102.783C200.213 100.663 200.342 98.5165 200.27 96.3723C200.27 94.4277 198.596 91.778 196.188 91.7709L195.12 91.6427L191.024 93.2667C190.74 93.2824 190.471 93.4034 190.271 93.6062C190.071 93.809 189.953 94.079 189.941 94.3636L189.82 108.047L191.694 110.675C192.037 111.139 192.516 111.484 193.065 111.662C193.614 111.84 194.205 111.841 194.755 111.666C195.305 111.491 195.787 111.148 196.132 110.685C196.477 110.223 196.668 109.664 196.68 109.087L196.687 109.115Z" fill="#FFBE9D"/>
<path d="M195.056 102.042C195.078 101.877 195.162 101.727 195.291 101.622C195.408 101.524 195.554 101.466 195.706 101.457C195.859 101.448 196.01 101.488 196.138 101.572C196.269 101.674 196.371 101.809 196.434 101.962C196.496 102.116 196.517 102.284 196.495 102.448C196.423 102.547 196.332 102.63 196.226 102.691C196.121 102.753 196.003 102.791 195.882 102.804H195.768C195.674 102.807 195.58 102.79 195.492 102.756C195.404 102.722 195.323 102.67 195.255 102.605C195.183 102.531 195.128 102.442 195.094 102.345C195.059 102.248 195.046 102.145 195.056 102.042Z" fill="#EB996E"/>
<path d="M198.783 98.6231C198.779 98.7314 198.733 98.8339 198.654 98.9086C198.575 98.9832 198.471 99.0239 198.362 99.022C198.309 99.0229 198.256 99.0134 198.206 98.9938C198.157 98.9743 198.112 98.9452 198.073 98.9081C198.035 98.8711 198.004 98.8268 197.983 98.7779C197.962 98.729 197.95 98.6764 197.949 98.6231C197.955 98.5141 198.002 98.4116 198.082 98.3372C198.162 98.2627 198.268 98.2222 198.377 98.2242C198.43 98.2233 198.482 98.2329 198.531 98.2525C198.581 98.2721 198.625 98.3014 198.663 98.3385C198.701 98.3756 198.731 98.4199 198.752 98.4688C198.772 98.5177 198.783 98.5701 198.783 98.6231Z" fill="#263238"/>
<path d="M199.466 97.5974C199.409 97.6473 199.103 97.398 198.661 97.3766C198.22 97.3552 197.871 97.5618 197.828 97.5048C197.785 97.4478 197.864 97.3837 198.013 97.284C198.215 97.1637 198.448 97.1066 198.683 97.1202C198.915 97.1294 199.138 97.2144 199.317 97.3624C199.445 97.4763 199.488 97.576 199.466 97.5974Z" fill="#263238"/>
<path d="M196.652 100.974C196.886 100.919 197.125 100.89 197.365 100.888C197.478 100.888 197.592 100.888 197.614 100.788C197.63 100.671 197.61 100.552 197.557 100.447L197.265 99.5633C196.993 98.8096 196.781 98.0356 196.631 97.2484C196.964 97.9779 197.238 98.733 197.45 99.5063C197.55 99.8126 197.635 100.112 197.728 100.397C197.788 100.538 197.8 100.696 197.763 100.845C197.72 100.922 197.648 100.978 197.564 101.002C197.5 101.009 197.436 101.009 197.372 101.002C197.132 101.025 196.89 101.016 196.652 100.974Z" fill="#263238"/>
<path d="M196.674 106.273C195.145 106.204 193.665 105.711 192.4 104.848C192.4 104.848 193.433 107.149 196.674 107.028V106.273Z" fill="#EB996E"/>
<path d="M195.32 101.216C195.399 101.216 195.37 101.7 195.769 102.063C196.168 102.427 196.681 102.405 196.681 102.469C196.681 102.534 196.56 102.562 196.346 102.555C196.061 102.542 195.79 102.431 195.577 102.241C195.376 102.056 195.254 101.802 195.235 101.529C195.228 101.323 195.292 101.209 195.32 101.216Z" fill="#263238"/>
<path d="M199.373 95.9164C199.294 96.0232 198.952 95.9164 198.554 95.9164C198.155 95.9164 197.841 96.0161 197.734 95.9164C197.628 95.8167 197.734 95.7597 197.891 95.66C198.088 95.5365 198.314 95.4699 198.546 95.4677C198.78 95.4615 199.01 95.5234 199.209 95.6457C199.358 95.774 199.408 95.8665 199.373 95.9164Z" fill="#263238"/>
<path d="M193.881 98.6231C193.879 98.7322 193.919 98.8377 193.994 98.9175C194.068 98.9972 194.171 99.0449 194.28 99.0505C194.333 99.0553 194.386 99.0495 194.437 99.0335C194.488 99.0174 194.535 98.9913 194.575 98.9568C194.616 98.9223 194.649 98.88 194.673 98.8325C194.697 98.785 194.711 98.7331 194.714 98.6801C194.714 98.5722 194.673 98.4684 194.599 98.3902C194.525 98.312 194.423 98.2653 194.315 98.2598C194.263 98.2539 194.21 98.2588 194.159 98.274C194.108 98.2893 194.061 98.3146 194.021 98.3486C193.98 98.3825 193.947 98.4244 193.923 98.4715C193.899 98.5187 193.884 98.5703 193.881 98.6231Z" fill="#263238"/>
<path d="M193.34 97.4407C193.39 97.4977 193.71 97.2698 194.159 97.2769C194.608 97.284 194.928 97.5119 194.978 97.4621C195.028 97.4122 194.978 97.341 194.807 97.2341C194.617 97.0948 194.387 97.0199 194.152 97.0205C193.921 97.0132 193.693 97.0807 193.504 97.2128C193.361 97.3196 193.311 97.4122 193.34 97.4407Z" fill="#263238"/>
<path d="M193.083 96.4862C193.169 96.5931 193.518 96.4862 193.931 96.4862C194.344 96.4862 194.693 96.5717 194.778 96.4862C194.864 96.4008 194.778 96.3295 194.607 96.2298C194.4 96.1084 194.164 96.0444 193.924 96.0444C193.683 96.0444 193.447 96.1084 193.24 96.2298C193.09 96.3295 193.04 96.4293 193.083 96.4862Z" fill="#263238"/>
<path d="M190.484 99.8269C190.484 99.5847 190.256 99.0006 190.014 98.9507C189.387 98.8154 188.24 98.8083 188.141 100.418C188.005 102.619 190.277 102.298 190.277 102.234C190.277 102.17 190.441 100.653 190.484 99.8269Z" fill="#FFBE9D"/>
<path d="M189.692 101.394C189.692 101.394 189.657 101.394 189.586 101.444C189.541 101.463 189.492 101.473 189.443 101.473C189.394 101.473 189.346 101.463 189.301 101.444C189.163 101.345 189.054 101.211 188.985 101.055C188.916 100.9 188.89 100.729 188.909 100.56C188.917 100.372 188.966 100.187 189.051 100.019C189.077 99.952 189.118 99.8918 189.171 99.8435C189.224 99.7953 189.288 99.7603 189.358 99.7414C189.403 99.7316 189.45 99.7385 189.491 99.7607C189.531 99.783 189.562 99.8191 189.578 99.8625C189.584 99.8979 189.584 99.9339 189.578 99.9693C189.578 99.9693 189.628 99.9693 189.614 99.8482C189.605 99.7931 189.577 99.7428 189.536 99.7058C189.509 99.6794 189.476 99.6593 189.44 99.647C189.405 99.6347 189.367 99.6304 189.329 99.6345C189.238 99.6462 189.152 99.6812 189.078 99.7361C189.004 99.791 188.946 99.864 188.909 99.9479C188.803 100.133 188.745 100.341 188.738 100.553C188.714 100.749 188.748 100.948 188.837 101.124C188.926 101.3 189.065 101.446 189.237 101.543C189.295 101.563 189.357 101.57 189.418 101.564C189.48 101.558 189.539 101.539 189.593 101.508C189.692 101.472 189.692 101.401 189.692 101.394Z" fill="#EB996E"/>
<path d="M189.928 98.9579L190.483 99.5348C192.905 97.227 197.642 91.4361 197.378 91.778C196.273 91.3701 195.083 91.2429 193.917 91.4076C192.114 91.7139 188.703 92.6114 188.752 94.7269C188.859 96.2014 189.258 97.6399 189.928 98.9579Z" fill="#263238"/>
<path d="M186.723 98.4735C186.723 98.4735 186.723 98.4236 186.723 98.3453C186.765 98.2257 186.815 98.1091 186.872 97.9963C187.101 97.588 187.417 97.2353 187.798 96.9634C188.363 96.561 188.991 96.2575 189.657 96.066C190.37 95.8309 191.224 95.6457 192.043 95.2967C193.445 94.7048 194.71 93.8321 195.762 92.7325C196.078 92.3982 196.375 92.0462 196.652 91.6783L196.873 91.372C196.897 91.3352 196.926 91.3017 196.958 91.2723L196.894 91.3862C196.844 91.4575 196.78 91.5714 196.688 91.7068C196.422 92.0863 196.132 92.448 195.819 92.7894C195.35 93.2931 194.835 93.7511 194.28 94.157C193.601 94.6562 192.864 95.0723 192.086 95.3964C191.301 95.6974 190.5 95.9542 189.686 96.1657C189.03 96.3488 188.408 96.6401 187.848 97.0275C187.47 97.2877 187.152 97.6252 186.915 98.0176C186.84 98.1646 186.775 98.317 186.723 98.4735Z" fill="#455A64"/>
<path d="M187.364 98.8154C187.359 98.6521 187.388 98.4895 187.449 98.3382C187.614 97.9163 187.902 97.5539 188.276 97.2982C188.837 96.94 189.464 96.6978 190.12 96.5859C190.907 96.4358 191.674 96.1969 192.407 95.8737C193.136 95.5424 193.82 95.1213 194.444 94.62C194.962 94.2084 195.439 93.7481 195.869 93.2453C196.152 92.9074 196.411 92.5504 196.645 92.1769C196.723 92.0558 196.787 91.949 196.83 91.8706C196.852 91.8322 196.879 91.7964 196.909 91.7638C196.893 91.8035 196.874 91.8417 196.852 91.8777L196.681 92.1983C196.462 92.5855 196.209 92.9526 195.926 93.2952C195.505 93.8211 195.027 94.2989 194.501 94.7198C193.871 95.2314 193.179 95.6621 192.442 96.0019C191.701 96.3279 190.924 96.567 190.128 96.7142C189.483 96.835 188.866 97.0767 188.311 97.4264C187.942 97.6671 187.652 98.0116 187.478 98.4165C187.428 98.5459 187.39 98.6794 187.364 98.8154Z" fill="#455A64"/>
<path d="M186.074 118.717C185.97 117.313 185.97 115.904 186.074 114.5C186.169 115.904 186.169 117.313 186.074 118.717Z" fill="#263238"/>
<path d="M201.189 118.417C201.17 118.18 201.17 117.942 201.189 117.705C201.232 117.111 201.21 116.514 201.125 115.924C201.014 115.336 200.842 114.761 200.612 114.208C200.504 113.979 200.418 113.741 200.355 113.496C200.495 113.704 200.612 113.926 200.704 114.158C200.968 114.707 201.158 115.289 201.267 115.889C201.352 116.491 201.352 117.103 201.267 117.705C201.271 117.945 201.245 118.184 201.189 118.417Z" fill="#263238"/>
<path d="M278.073 124.671H223.619C222.321 124.67 221.078 124.153 220.161 123.236C219.243 122.319 218.727 121.075 218.725 119.778V96.9136L212.721 91.5857H278.073C278.719 91.581 279.36 91.7043 279.958 91.9486C280.556 92.1928 281.1 92.5532 281.559 93.0088C282.017 93.4644 282.38 94.0063 282.628 94.6032C282.876 95.2 283.003 95.84 283.002 96.4862V119.778C283.001 120.423 282.873 121.062 282.624 121.658C282.376 122.253 282.012 122.794 281.554 123.249C281.096 123.703 280.553 124.063 279.955 124.307C279.358 124.551 278.718 124.675 278.073 124.671Z" fill="#EBEBEB"/>
<path d="M274.342 128.375C272.41 128.559 270.469 128.621 268.53 128.56C266.593 128.62 264.654 128.559 262.725 128.375C264.654 128.192 266.593 128.13 268.53 128.19C270.469 128.13 272.41 128.192 274.342 128.375Z" fill="#E0E0E0"/>
<path d="M276.742 128.831C276.718 128.831 276.694 128.826 276.672 128.816C276.65 128.806 276.63 128.792 276.614 128.774L275.488 127.599C275.456 127.566 275.438 127.521 275.438 127.474C275.438 127.428 275.456 127.383 275.488 127.35C275.504 127.333 275.524 127.319 275.545 127.31C275.567 127.3 275.59 127.296 275.613 127.296C275.636 127.296 275.66 127.3 275.681 127.31C275.702 127.319 275.722 127.333 275.738 127.35L276.735 128.39L278.922 126.167C278.938 126.15 278.957 126.137 278.978 126.127C279 126.118 279.023 126.113 279.046 126.113C279.07 126.113 279.093 126.118 279.114 126.127C279.136 126.137 279.155 126.15 279.171 126.167C279.204 126.2 279.222 126.245 279.222 126.292C279.222 126.338 279.204 126.383 279.171 126.416L276.856 128.774C276.825 128.805 276.785 128.825 276.742 128.831Z" fill="#4286EF"/>
<path d="M278.344 128.796H278.137C278.09 128.796 278.045 128.777 278.011 128.743C277.978 128.71 277.959 128.665 277.959 128.617C277.964 128.571 277.985 128.527 278.019 128.495C278.053 128.462 278.097 128.442 278.144 128.439H278.272L280.53 126.139C280.547 126.121 280.567 126.108 280.589 126.098C280.611 126.089 280.635 126.084 280.659 126.084C280.682 126.084 280.706 126.089 280.728 126.098C280.75 126.108 280.77 126.121 280.787 126.139C280.819 126.172 280.838 126.217 280.838 126.263C280.838 126.31 280.819 126.355 280.787 126.388L278.472 128.739C278.456 128.757 278.436 128.772 278.414 128.781C278.392 128.791 278.368 128.796 278.344 128.796Z" fill="#4286EF"/>
<path d="M274.342 217.888C272.41 218.072 270.469 218.134 268.53 218.073C266.593 218.133 264.654 218.072 262.725 217.888C264.654 217.705 266.593 217.643 268.53 217.703C270.469 217.643 272.41 217.705 274.342 217.888Z" fill="#E0E0E0"/>
<path d="M276.742 218.344C276.715 218.347 276.687 218.343 276.661 218.333C276.635 218.323 276.611 218.308 276.593 218.287L275.467 217.112C275.447 217.096 275.431 217.076 275.42 217.053C275.408 217.03 275.402 217.006 275.401 216.98C275.399 216.955 275.404 216.929 275.414 216.906C275.423 216.882 275.438 216.861 275.456 216.843C275.475 216.826 275.497 216.813 275.521 216.804C275.545 216.796 275.571 216.793 275.596 216.796C275.621 216.798 275.646 216.806 275.668 216.819C275.69 216.832 275.709 216.849 275.724 216.87L276.721 217.91L278.908 215.687C278.924 215.67 278.943 215.657 278.964 215.647C278.986 215.638 279.009 215.633 279.032 215.633C279.056 215.633 279.079 215.638 279.1 215.647C279.122 215.657 279.141 215.67 279.157 215.687C279.189 215.721 279.208 215.765 279.208 215.812C279.208 215.859 279.189 215.903 279.157 215.937L276.87 218.287C276.836 218.32 276.79 218.341 276.742 218.344Z" fill="#4286EF"/>
<path d="M278.344 218.287H278.137C278.089 218.285 278.044 218.265 278.011 218.23C277.977 218.196 277.959 218.15 277.959 218.102C277.959 218.078 277.964 218.055 277.973 218.033C277.983 218.011 277.997 217.992 278.014 217.976C278.031 217.96 278.052 217.947 278.074 217.94C278.097 217.932 278.121 217.929 278.144 217.931H278.272L280.53 215.63C280.547 215.613 280.567 215.599 280.589 215.59C280.611 215.581 280.635 215.576 280.659 215.576C280.682 215.576 280.706 215.581 280.728 215.59C280.75 215.599 280.77 215.613 280.787 215.63C280.819 215.664 280.838 215.708 280.838 215.755C280.838 215.802 280.819 215.846 280.787 215.88L278.472 218.23C278.456 218.249 278.436 218.263 278.414 218.273C278.392 218.283 278.368 218.288 278.344 218.287Z" fill="#4286EF"/>
<path d="M277.376 98.1316C277.376 98.2313 265.488 98.3168 250.822 98.3168C236.156 98.3168 224.275 98.2313 224.275 98.1316C224.275 98.0319 236.156 97.9464 250.822 97.9464C265.488 97.9464 277.376 98.0248 277.376 98.1316Z" fill="white"/>
<path d="M277.376 102.028C277.376 102.135 265.488 102.213 250.822 102.213C236.156 102.213 224.275 102.135 224.275 102.028C224.275 101.921 236.156 101.843 250.822 101.843C265.488 101.843 277.376 101.928 277.376 102.028Z" fill="white"/>
<path d="M277.376 105.931C277.376 106.031 265.488 106.116 250.822 106.116C236.156 106.116 224.275 106.031 224.275 105.931C224.275 105.831 236.156 105.746 250.822 105.746C265.488 105.746 277.376 105.831 277.376 105.931Z" fill="white"/>
<path d="M193.211 219.783C202.035 219.783 209.188 212.646 209.188 203.842C209.188 195.038 202.035 187.901 193.211 187.901C184.387 187.901 177.234 195.038 177.234 203.842C177.234 212.646 184.387 219.783 193.211 219.783Z" fill="#E0E0E0"/>
<path d="M185.746 207.831L189.934 207.475L200.149 209.198L201.352 216.863L201.181 217.753C198.881 219.053 196.295 219.766 193.654 219.826C191.012 219.887 188.396 219.295 186.038 218.102L185.746 207.809" fill="#455A64"/>
<path d="M197.963 209.07C198.976 208.924 200.009 209.065 200.946 209.476C201.883 209.888 202.685 210.554 203.262 211.399C203.956 212.367 204.591 213.376 205.164 214.419C203.497 216.229 202.144 217.603 199.836 218.401L197.963 209.07Z" fill="#455A64"/>
<path d="M185.747 207.831C185.747 207.831 182.984 208.166 181.915 210.523C180.847 212.881 180.598 213.622 180.598 213.622C182.022 215.338 183.846 217.375 186.075 218.138C186.075 218.138 186.581 212.204 186.645 210.523C186.723 208.686 186.795 207.774 185.747 207.831Z" fill="#455A64"/>
<path d="M188.268 192.73C188.963 191.837 189.851 191.112 190.864 190.609C191.878 190.106 192.992 189.838 194.123 189.824C195.096 189.818 196.061 189.99 196.972 190.33C197.93 190.562 198.776 191.121 199.366 191.911C200.09 192.845 200.566 193.948 200.747 195.116C200.914 196.315 200.972 197.526 200.918 198.735C200.861 199.948 200.469 201.121 199.786 202.125L196.716 202.66C195.023 202.791 193.321 202.7 191.652 202.389C189.965 202.065 188.474 201.087 187.506 199.668C186.274 197.631 186.787 194.547 188.268 192.73Z" fill="#263238"/>
<path d="M185.306 201.627C185.336 201.279 185.446 200.943 185.626 200.644C185.806 200.345 186.052 200.092 186.346 199.903C186.644 199.721 186.993 199.639 187.341 199.668C187.69 199.698 188.02 199.837 188.283 200.067L188.768 200.644C189.142 200.816 189.453 201.1 189.658 201.458C189.862 201.816 189.949 202.228 189.907 202.638C189.849 203.046 189.676 203.43 189.409 203.744C189.142 204.058 188.791 204.289 188.397 204.412C188 204.523 187.582 204.53 187.181 204.432C186.781 204.335 186.412 204.137 186.111 203.856C185.814 203.571 185.588 203.222 185.448 202.835C185.309 202.449 185.26 202.035 185.306 201.627Z" fill="#263238"/>
<path d="M185.91 203.692C185.796 203.509 185.739 203.296 185.746 203.08C185.849 202.563 186.096 202.087 186.459 201.705C186.8 201.299 187.219 200.965 187.691 200.722C188.047 200.53 188.296 200.459 188.289 200.43C188.063 200.451 187.842 200.516 187.641 200.622C187.141 200.85 186.699 201.186 186.345 201.605C186.147 201.835 185.979 202.089 185.846 202.36C185.729 202.58 185.66 202.824 185.647 203.073C185.644 203.244 185.691 203.412 185.782 203.557C185.846 203.664 185.91 203.699 185.91 203.692Z" fill="#455A64"/>
<path d="M196.702 208.785V205.936C196.702 205.936 199.202 205.658 199.901 202.46C200.228 200.34 200.357 198.194 200.285 196.05C200.285 194.105 198.611 191.455 196.204 191.448L195.135 191.327L191.04 192.951C190.755 192.965 190.485 193.086 190.285 193.289C190.084 193.492 189.967 193.763 189.957 194.048L189.836 207.724L191.709 210.352C192.052 210.816 192.532 211.162 193.081 211.339C193.63 211.517 194.221 211.519 194.771 211.343C195.321 211.168 195.802 210.825 196.147 210.363C196.492 209.9 196.684 209.341 196.695 208.764L196.702 208.785Z" fill="#FFBE9D"/>
<path d="M195.057 201.456C195.079 201.291 195.163 201.141 195.292 201.036C195.409 200.937 195.555 200.879 195.707 200.87C195.86 200.862 196.011 200.902 196.139 200.986C196.27 201.088 196.372 201.222 196.434 201.376C196.497 201.53 196.518 201.697 196.495 201.862C196.424 201.96 196.332 202.042 196.226 202.102C196.121 202.162 196.004 202.199 195.883 202.211H195.769C195.578 202.207 195.396 202.133 195.256 202.004C195.183 201.934 195.127 201.848 195.093 201.753C195.058 201.658 195.046 201.556 195.057 201.456Z" fill="#EB996E"/>
<path d="M198.783 198.343C198.769 198.444 198.72 198.537 198.643 198.604C198.566 198.672 198.468 198.709 198.366 198.709C198.264 198.709 198.165 198.672 198.089 198.604C198.012 198.537 197.962 198.444 197.949 198.343C197.955 198.234 198.002 198.132 198.082 198.057C198.162 197.983 198.268 197.942 198.377 197.944C198.43 197.943 198.482 197.953 198.531 197.973C198.581 197.992 198.625 198.021 198.663 198.058C198.701 198.096 198.731 198.14 198.752 198.189C198.772 198.238 198.783 198.29 198.783 198.343Z" fill="#263238"/>
<path d="M199.466 197.282C199.409 197.332 199.103 197.082 198.661 197.061C198.22 197.04 197.871 197.239 197.828 197.182C197.785 197.125 197.864 197.061 198.013 196.968C198.212 196.842 198.448 196.784 198.683 196.805C198.915 196.814 199.138 196.899 199.317 197.047C199.445 197.161 199.488 197.26 199.466 197.282Z" fill="#263238"/>
<path d="M196.652 200.658C196.886 200.602 197.125 200.571 197.365 200.565C197.478 200.565 197.592 200.565 197.614 200.466C197.629 200.349 197.61 200.23 197.557 200.124C197.464 199.846 197.365 199.554 197.265 199.241C196.994 198.489 196.782 197.717 196.631 196.933C196.965 197.66 197.239 198.412 197.45 199.184C197.55 199.497 197.635 199.789 197.728 200.074C197.788 200.216 197.8 200.373 197.763 200.523C197.744 200.562 197.716 200.597 197.682 200.624C197.647 200.651 197.607 200.67 197.564 200.679C197.5 200.689 197.435 200.689 197.372 200.679C197.132 200.705 196.89 200.698 196.652 200.658Z" fill="#263238"/>
<path d="M196.674 205.95C195.149 205.891 193.669 205.41 192.4 204.561C192.4 204.561 193.433 206.862 196.674 206.741V205.95Z" fill="#EB996E"/>
<path d="M195.32 200.893C195.399 200.893 195.37 201.377 195.769 201.748C196.168 202.118 196.681 202.09 196.681 202.154C196.681 202.218 196.56 202.239 196.346 202.239C196.06 202.227 195.787 202.113 195.577 201.919C195.374 201.736 195.251 201.48 195.235 201.206C195.228 201.007 195.292 200.893 195.32 200.893Z" fill="#263238"/>
<path d="M199.373 195.601C199.294 195.708 198.952 195.601 198.554 195.601C198.155 195.601 197.841 195.7 197.734 195.601C197.628 195.501 197.734 195.444 197.891 195.344C198.086 195.218 198.314 195.151 198.546 195.152C198.78 195.142 199.011 195.205 199.209 195.33C199.358 195.444 199.408 195.551 199.373 195.601Z" fill="#263238"/>
<path d="M193.881 198.286C193.879 198.395 193.92 198.499 193.994 198.578C194.069 198.657 194.171 198.703 194.28 198.706C194.332 198.712 194.386 198.707 194.436 198.692C194.487 198.677 194.534 198.652 194.575 198.618C194.615 198.584 194.649 198.542 194.673 198.495C194.697 198.447 194.711 198.396 194.714 198.343C194.716 198.234 194.676 198.128 194.601 198.049C194.527 197.969 194.424 197.921 194.315 197.916C194.262 197.911 194.209 197.917 194.158 197.933C194.108 197.949 194.061 197.975 194.02 198.009C193.98 198.044 193.946 198.086 193.923 198.134C193.899 198.181 193.885 198.233 193.881 198.286Z" fill="#263238"/>
<path d="M193.34 197.118C193.39 197.175 193.71 196.947 194.159 196.961C194.608 196.976 194.928 197.196 194.978 197.139C195.028 197.082 194.978 197.018 194.807 196.911C194.615 196.775 194.387 196.701 194.152 196.698C193.92 196.696 193.694 196.766 193.504 196.897C193.361 196.997 193.311 197.097 193.34 197.118Z" fill="#263238"/>
<path d="M193.083 196.164C193.169 196.263 193.518 196.164 193.931 196.164C194.344 196.164 194.693 196.242 194.778 196.164C194.864 196.085 194.778 196.014 194.607 195.914C194.4 195.793 194.164 195.729 193.924 195.729C193.683 195.729 193.447 195.793 193.24 195.914C193.09 196.007 193.04 196.114 193.083 196.164Z" fill="#263238"/>
<path d="M190.484 199.233C190.484 198.991 190.256 198.414 190.014 198.364C189.387 198.229 188.24 198.215 188.141 199.825C188.005 202.026 190.277 201.712 190.277 201.648C190.277 201.584 190.441 200.067 190.484 199.233Z" fill="#FFBE9D"/>
<path d="M189.692 200.808C189.692 200.808 189.657 200.808 189.585 200.857C189.494 200.893 189.392 200.893 189.3 200.857C189.163 200.76 189.054 200.627 188.985 200.473C188.916 200.319 188.89 200.149 188.909 199.981C188.916 199.793 188.965 199.608 189.051 199.44C189.077 199.373 189.118 199.313 189.171 199.264C189.224 199.216 189.288 199.181 189.357 199.162C189.402 199.153 189.448 199.16 189.488 199.181C189.528 199.201 189.56 199.235 189.578 199.276C189.584 199.314 189.584 199.352 189.578 199.39C189.578 199.39 189.628 199.355 189.614 199.262C189.603 199.207 189.576 199.158 189.535 199.119C189.507 199.096 189.474 199.078 189.439 199.067C189.403 199.055 189.366 199.052 189.329 199.055C189.237 199.066 189.15 199.1 189.076 199.155C189.003 199.21 188.945 199.284 188.909 199.369C188.802 199.553 188.744 199.761 188.738 199.974C188.714 200.169 188.749 200.366 188.838 200.542C188.926 200.717 189.065 200.861 189.236 200.957C189.292 200.984 189.353 200.998 189.414 200.998C189.476 200.998 189.537 200.984 189.592 200.957C189.692 200.857 189.692 200.808 189.692 200.808Z" fill="#EB996E"/>
<path d="M189.928 198.343L190.483 198.927C192.905 196.612 197.642 190.821 197.378 191.17C196.274 190.757 195.084 190.627 193.917 190.793C192.114 191.099 188.703 191.997 188.752 194.119C188.859 195.591 189.259 197.027 189.928 198.343Z" fill="#263238"/>
<path d="M186.723 197.88C186.723 197.88 186.723 197.837 186.723 197.752C186.766 197.635 186.816 197.521 186.872 197.41C187.102 197.001 187.418 196.646 187.798 196.37C188.375 195.971 189.016 195.675 189.693 195.494C190.405 195.252 191.26 195.067 192.079 194.718C192.85 194.397 193.582 193.989 194.259 193.5C194.811 193.101 195.326 192.653 195.797 192.16C196.196 191.733 196.509 191.363 196.688 191.106C196.773 190.978 196.851 190.878 196.908 190.8C196.965 190.722 196.987 190.693 196.994 190.7L196.93 190.814L196.723 191.128C196.461 191.51 196.171 191.872 195.854 192.21C195.386 192.716 194.871 193.177 194.316 193.585C193.632 194.07 192.893 194.472 192.115 194.782C191.288 195.131 190.448 195.316 189.714 195.551C189.058 195.732 188.437 196.021 187.877 196.406C187.498 196.668 187.18 197.008 186.943 197.403C186.86 197.557 186.786 197.717 186.723 197.88Z" fill="#455A64"/>
<path d="M187.364 198.229C187.359 198.063 187.388 197.899 187.449 197.745C187.612 197.324 187.901 196.963 188.276 196.712C188.837 196.354 189.464 196.112 190.12 196C190.906 195.846 191.673 195.607 192.407 195.287C193.136 194.956 193.82 194.535 194.444 194.034C195.302 193.347 196.039 192.521 196.624 191.591C196.702 191.462 196.766 191.363 196.809 191.277C196.832 191.242 196.858 191.208 196.887 191.177C196.872 191.217 196.853 191.255 196.83 191.291L196.659 191.612C196.441 191.999 196.188 192.366 195.904 192.709C195.483 193.235 195.006 193.713 194.48 194.133C193.851 194.645 193.159 195.074 192.421 195.408C191.678 195.731 190.902 195.97 190.106 196.121C189.459 196.235 188.842 196.477 188.29 196.833C187.916 197.069 187.625 197.415 187.456 197.823C187.413 197.955 187.382 198.091 187.364 198.229Z" fill="#455A64"/>
<path d="M186.074 218.123C185.97 216.722 185.97 215.315 186.074 213.914C186.169 215.315 186.169 216.722 186.074 218.123Z" fill="#263238"/>
<path d="M201.189 217.831C201.168 217.582 201.168 217.332 201.189 217.083C201.232 216.487 201.21 215.887 201.125 215.295C201.013 214.71 200.841 214.137 200.612 213.586C200.506 213.357 200.42 213.118 200.355 212.874C200.495 213.082 200.612 213.304 200.704 213.536C200.969 214.085 201.159 214.667 201.267 215.267C201.352 215.869 201.352 216.481 201.267 217.083C201.273 217.335 201.247 217.586 201.189 217.831Z" fill="#263238"/>
<path d="M278.073 213.216H223.619C222.32 213.214 221.076 212.697 220.158 211.778C219.241 210.859 218.725 209.614 218.725 208.315V196.32L212.721 190.992H278.073C279.37 190.994 280.614 191.51 281.531 192.428C282.448 193.345 282.964 194.588 282.966 195.886V208.315C282.966 209.614 282.451 210.859 281.534 211.778C280.616 212.697 279.371 213.214 278.073 213.216Z" fill="#EBEBEB"/>
<path d="M277.376 197.538C277.376 197.645 265.488 197.723 250.822 197.723C236.156 197.723 224.275 197.645 224.275 197.538C224.275 197.431 236.156 197.353 250.822 197.353C265.488 197.353 277.376 197.439 277.376 197.538Z" fill="white"/>
<path d="M277.376 201.442C277.376 201.541 265.488 201.627 250.822 201.627C236.156 201.627 224.275 201.541 224.275 201.442C224.275 201.342 236.156 201.256 250.822 201.256C265.488 201.256 277.376 201.342 277.376 201.442Z" fill="white"/>
<path d="M277.376 205.345C277.376 205.445 265.488 205.53 250.822 205.53C236.156 205.53 224.275 205.445 224.275 205.345C224.275 205.245 236.156 205.16 250.822 205.16C265.488 205.16 277.376 205.238 277.376 205.345Z" fill="white"/>
<path d="M277.376 109.834C277.376 109.934 265.488 110.02 250.822 110.02C236.156 110.02 224.275 109.934 224.275 109.834C224.275 109.735 236.156 109.649 250.822 109.649C265.488 109.649 277.376 109.728 277.376 109.834Z" fill="white"/>
<path d="M277.376 113.731C277.376 113.838 265.488 113.916 250.822 113.916C236.156 113.916 224.275 113.838 224.275 113.731C224.275 113.624 236.156 113.545 250.822 113.545C265.488 113.545 277.376 113.631 277.376 113.731Z" fill="white"/>
<path d="M277.376 118.417C277.376 118.524 265.488 118.603 250.822 118.603C236.156 118.603 224.275 118.524 224.275 118.417C224.275 118.311 236.156 118.232 250.822 118.232C265.488 118.232 277.376 118.318 277.376 118.417Z" fill="white"/>
<path d="M224.596 50.6364C224.634 50.0829 224.833 49.5526 225.168 49.1105C225.503 48.6684 225.96 48.3338 226.483 48.1477C227.005 47.9616 227.571 47.9322 228.11 48.063C228.649 48.1939 229.138 48.4792 229.518 48.8842L228.755 49.5964C228.598 49.4056 228.4 49.2523 228.176 49.1476C227.951 49.0428 227.707 48.9894 227.459 48.991C227.021 48.991 226.601 49.1651 226.291 49.475C225.981 49.7849 225.807 50.2052 225.807 50.6435C225.807 51.0818 225.981 51.5021 226.291 51.812C226.601 52.1219 227.021 52.296 227.459 52.296C227.707 52.2978 227.953 52.2437 228.177 52.1377C228.402 52.0316 228.599 51.8764 228.755 51.6834L229.518 52.3957C229.139 52.8004 228.65 53.0857 228.112 53.2168C227.573 53.3479 227.008 53.3191 226.486 53.1339C225.963 52.9487 225.506 52.6151 225.17 52.174C224.835 51.7329 224.635 51.2035 224.596 50.6506V50.6364Z" fill="#263238"/>
<path d="M234.254 50.9427V53.2149H233.142V51.1208C233.142 50.4797 232.843 50.1877 232.338 50.1877C231.832 50.1877 231.39 50.5296 231.39 51.2561V53.2149H230.236V47.7516H231.39V49.6677C231.557 49.5072 231.755 49.3822 231.972 49.3001C232.188 49.2181 232.419 49.1808 232.651 49.1905C232.877 49.1813 233.102 49.2216 233.311 49.3086C233.52 49.3956 233.707 49.5271 233.86 49.694C234.012 49.8609 234.127 50.0591 234.195 50.2748C234.263 50.4905 234.283 50.7184 234.254 50.9427Z" fill="#263238"/>
<path d="M238.798 50.9569V53.2149H237.722V52.7234C237.589 52.9156 237.406 53.0681 237.193 53.1646C236.979 53.2612 236.744 53.2983 236.512 53.2719C235.586 53.2719 235.037 52.759 235.037 52.0752C235.037 51.3914 235.529 50.8857 236.739 50.8857H237.651C237.651 50.3942 237.352 50.1093 236.739 50.1093C236.328 50.1052 235.926 50.2324 235.593 50.4726L235.18 49.6748C235.688 49.3456 236.284 49.1768 236.889 49.1905C238.128 49.1905 238.798 49.7532 238.798 50.9569ZM237.651 51.9613V51.5552H236.861C236.326 51.5552 236.148 51.7547 236.148 52.0254C236.148 52.296 236.39 52.5026 236.796 52.5026C236.978 52.5162 237.159 52.471 237.313 52.3734C237.467 52.2759 237.586 52.1314 237.651 51.9613Z" fill="#263238"/>
<path d="M242.402 53.0368C242.121 53.2132 241.793 53.3001 241.462 53.2861C241.266 53.313 241.067 53.2952 240.88 53.2339C240.692 53.1726 240.521 53.0694 240.378 52.9322C240.236 52.795 240.128 52.6273 240.06 52.4419C239.992 52.2564 239.967 52.0579 239.988 51.8615V50.2304H239.375V49.3472H239.988V48.3784H241.134V49.3472H242.124V50.2304H241.134V51.8473C241.126 51.9152 241.132 51.9841 241.154 52.0491C241.175 52.1142 241.21 52.1737 241.257 52.2234C241.304 52.2731 241.362 52.3118 241.425 52.3367C241.489 52.3616 241.558 52.372 241.626 52.3672C241.793 52.3733 241.957 52.3203 242.089 52.2177L242.402 53.0368Z" fill="#263238"/>
<path d="M262.724 58.5855C262.724 58.6852 250.616 58.7707 235.608 58.7707C220.6 58.7707 208.498 58.6852 208.498 58.5855C208.498 58.4858 220.607 58.3932 235.608 58.3932C250.608 58.3932 262.724 58.4787 262.724 58.5855Z" fill="#263238"/>
<path d="M286.749 50.6364C287.445 50.6364 288.01 50.0719 288.01 49.3756C288.01 48.6794 287.445 48.1149 286.749 48.1149C286.053 48.1149 285.488 48.6794 285.488 49.3756C285.488 50.0719 286.053 50.6364 286.749 50.6364Z" fill="#263238"/>
<path d="M287.989 53.0368C287.99 53.2882 287.917 53.5343 287.778 53.7439C287.639 53.9534 287.441 54.117 287.209 54.2139C286.978 54.3107 286.722 54.3364 286.475 54.2878C286.229 54.2391 286.002 54.1182 285.824 53.9404C285.647 53.7627 285.526 53.5361 285.477 53.2895C285.428 53.0429 285.454 52.7874 285.551 52.5554C285.648 52.3235 285.811 52.1255 286.021 51.9868C286.231 51.848 286.477 51.7746 286.728 51.7761C287.062 51.7779 287.381 51.9113 287.618 52.1474C287.854 52.3834 287.987 52.703 287.989 53.0368Z" fill="#263238"/>
<path d="M287.989 56.7335C287.99 56.9849 287.917 57.231 287.778 57.4406C287.639 57.6502 287.441 57.8138 287.209 57.9106C286.978 58.0075 286.722 58.0332 286.475 57.9845C286.229 57.9358 286.002 57.8149 285.824 57.6372C285.647 57.4594 285.526 57.2329 285.477 56.9863C285.428 56.7396 285.454 56.4841 285.551 56.2522C285.648 56.0202 285.811 55.8223 286.021 55.6835C286.231 55.5447 286.477 55.4714 286.728 55.4728C287.062 55.4728 287.383 55.6056 287.62 55.8421C287.856 56.0785 287.989 56.3992 287.989 56.7335Z" fill="#263238"/>
<path d="M184.223 53.6494C184.146 53.651 184.071 53.6259 184.01 53.5781L180.669 51.1279C180.623 51.094 180.586 51.05 180.56 50.9993C180.534 50.9487 180.52 50.8927 180.52 50.8359C180.52 50.7798 180.533 50.7247 180.56 50.6751C180.586 50.6255 180.623 50.5829 180.669 50.5509L184.01 48.1434C184.048 48.1161 184.091 48.0966 184.137 48.0861C184.183 48.0756 184.23 48.0743 184.277 48.0822C184.323 48.0902 184.368 48.1072 184.407 48.1324C184.447 48.1576 184.481 48.1904 184.508 48.2289C184.562 48.3048 184.584 48.3987 184.569 48.4906C184.555 48.5824 184.505 48.6649 184.43 48.7204L181.481 50.8572L184.43 52.9941C184.505 53.0508 184.555 53.1345 184.57 53.2275C184.585 53.3206 184.562 53.4156 184.508 53.4927C184.477 53.54 184.435 53.5789 184.385 53.6062C184.336 53.6335 184.28 53.6483 184.223 53.6494Z" fill="#263238"/>
<path d="M271.398 173.413C280.222 173.413 287.375 166.276 287.375 157.472C287.375 148.668 280.222 141.531 271.398 141.531C262.575 141.531 255.422 148.668 255.422 157.472C255.422 166.276 262.575 173.413 271.398 173.413Z" fill="#E0E0E0"/>
<path d="M275.773 166.896H267.368C267.081 166.896 266.805 166.782 266.602 166.579C266.399 166.376 266.285 166.1 266.285 165.813C266.285 165.525 266.399 165.249 266.602 165.045C266.805 164.841 267.08 164.725 267.368 164.723H275.773C276.061 164.725 276.336 164.841 276.539 165.045C276.742 165.249 276.855 165.525 276.855 165.813C276.855 166.1 276.741 166.376 276.538 166.579C276.335 166.782 276.06 166.896 275.773 166.896Z" fill="#263238"/>
<path d="M272.047 147.108H271.307V150.841H272.047V147.108Z" fill="#263238"/>
<path d="M260.786 162.031C261.982 162.031 262.952 161.061 262.952 159.865C262.952 158.67 261.982 157.7 260.786 157.7C259.591 157.7 258.621 158.67 258.621 159.865C258.621 161.061 259.591 162.031 260.786 162.031Z" fill="#4286EF"/>
<path d="M282.681 161.888C283.877 161.888 284.846 160.919 284.846 159.723C284.846 158.527 283.877 157.558 282.681 157.558C281.485 157.558 280.516 158.527 280.516 159.723C280.516 160.919 281.485 161.888 282.681 161.888Z" fill="#4286EF"/>
<path d="M271.997 150.057C271.997 150.057 280.815 149.95 282.211 157.593C283.607 165.236 276.149 165.371 274.005 165.514C273.037 165.578 270.957 165.585 269.119 165.557C265.052 165.485 262.181 164.702 261.206 160.927C261.089 160.484 261.015 160.031 260.985 159.573C260.728 155.442 263.52 149.858 271.997 150.057Z" fill="#4286EF"/>
<path d="M265.602 161.689L278.423 161.888C279.068 161.898 279.69 161.651 280.154 161.203C280.617 160.754 280.883 160.14 280.895 159.495C280.902 158.85 280.654 158.229 280.204 157.767C279.754 157.305 279.139 157.04 278.494 157.031L265.673 156.831C265.353 156.825 265.036 156.883 264.739 157C264.441 157.117 264.17 157.292 263.94 157.515C263.711 157.737 263.527 158.002 263.401 158.296C263.274 158.589 263.206 158.905 263.201 159.224C263.197 159.544 263.255 159.861 263.373 160.158C263.491 160.455 263.667 160.726 263.89 160.955C264.113 161.184 264.379 161.366 264.673 161.492C264.967 161.618 265.282 161.685 265.602 161.689Z" fill="#263238"/>
<path d="M275.759 159.231C275.778 159.332 275.816 159.428 275.872 159.514C275.928 159.6 276.001 159.674 276.086 159.731C276.17 159.789 276.266 159.829 276.366 159.85C276.466 159.87 276.57 159.871 276.67 159.851C276.779 159.84 276.884 159.807 276.979 159.753C277.073 159.699 277.156 159.626 277.221 159.539C277.286 159.451 277.332 159.351 277.356 159.245C277.38 159.138 277.382 159.028 277.361 158.921C277.34 158.814 277.297 158.713 277.235 158.624C277.172 158.534 277.092 158.459 276.999 158.402C276.906 158.346 276.802 158.309 276.694 158.295C276.586 158.281 276.476 158.289 276.371 158.32C276.271 158.339 276.176 158.378 276.091 158.435C276.006 158.491 275.933 158.564 275.876 158.649C275.819 158.733 275.78 158.828 275.759 158.928C275.739 159.028 275.739 159.131 275.759 159.231Z" fill="white"/>
<path d="M266.805 159.089C266.816 159.197 266.849 159.302 266.903 159.397C266.957 159.492 267.03 159.574 267.117 159.639C267.205 159.704 267.305 159.75 267.411 159.774C267.517 159.799 267.628 159.8 267.735 159.779C267.841 159.758 267.943 159.715 268.032 159.653C268.122 159.591 268.197 159.511 268.254 159.417C268.31 159.324 268.347 159.22 268.361 159.112C268.375 159.004 268.367 158.894 268.336 158.79C268.281 158.602 268.158 158.442 267.991 158.341C267.825 158.239 267.626 158.204 267.434 158.241C267.242 158.279 267.072 158.386 266.955 158.543C266.839 158.7 266.785 158.895 266.805 159.089Z" fill="white"/>
<path d="M272.895 147.059C272.896 147.3 272.826 147.536 272.693 147.737C272.56 147.938 272.37 148.096 272.148 148.189C271.926 148.282 271.68 148.307 271.444 148.261C271.207 148.215 270.989 148.099 270.818 147.929C270.647 147.759 270.53 147.542 270.483 147.306C270.435 147.069 270.459 146.824 270.551 146.601C270.643 146.378 270.799 146.188 271 146.053C271.2 145.919 271.436 145.848 271.677 145.848C271.999 145.848 272.308 145.975 272.536 146.202C272.764 146.429 272.893 146.737 272.895 147.059Z" fill="#4286EF"/>
<path d="M273.515 158.875C273.515 158.875 273.565 158.932 273.593 159.061C273.616 159.242 273.599 159.427 273.544 159.602C273.465 159.872 273.318 160.118 273.116 160.314C272.869 160.561 272.545 160.714 272.197 160.749C271.85 160.778 271.503 160.687 271.214 160.492C270.986 160.337 270.798 160.13 270.666 159.887C270.582 159.723 270.533 159.544 270.523 159.36C270.523 159.231 270.523 159.16 270.566 159.16C270.609 159.16 270.637 159.431 270.872 159.766C271.01 159.951 271.181 160.108 271.378 160.229C271.616 160.37 271.892 160.435 272.169 160.414C272.434 160.38 272.683 160.266 272.881 160.086C273.061 159.937 273.204 159.75 273.301 159.538C273.487 159.167 273.458 158.875 273.515 158.875Z" fill="white"/>
<path d="M282.197 157.344C282.224 157.404 282.245 157.466 282.261 157.529C282.289 157.604 282.313 157.68 282.332 157.757C282.332 157.843 282.382 157.942 282.403 158.063C282.458 158.329 282.496 158.598 282.517 158.868C282.542 159.2 282.542 159.533 282.517 159.865C282.488 160.197 282.433 160.525 282.354 160.848C282.287 161.111 282.201 161.368 282.097 161.618C282.062 161.717 282.021 161.815 281.976 161.91C281.945 161.981 281.909 162.05 281.869 162.116L281.77 162.294C281.785 162.229 281.812 162.166 281.848 162.109L281.94 161.888C281.976 161.803 282.019 161.71 282.054 161.603C282.15 161.353 282.229 161.096 282.29 160.834C282.365 160.513 282.42 160.187 282.453 159.858C282.474 159.529 282.474 159.198 282.453 158.868C282.436 158.601 282.402 158.334 282.354 158.07C282.339 157.96 282.317 157.851 282.29 157.743C282.29 157.65 282.254 157.579 282.24 157.515C282.218 157.46 282.203 157.403 282.197 157.344Z" fill="#263238"/>
<path d="M261.306 157.387C261.275 157.448 261.252 157.513 261.235 157.579C261.235 157.636 261.192 157.714 261.163 157.8C261.135 157.885 261.114 157.992 261.092 158.106C261.038 158.371 261.002 158.64 260.985 158.911C260.961 159.243 260.961 159.576 260.985 159.908C261.014 160.24 261.069 160.568 261.149 160.891C261.215 161.156 261.301 161.415 261.406 161.668C261.441 161.774 261.491 161.867 261.527 161.952C261.562 162.038 261.605 162.109 261.634 162.166L261.733 162.337C261.715 162.272 261.688 162.21 261.655 162.152C261.655 162.095 261.598 162.024 261.562 161.938C261.527 161.853 261.484 161.76 261.448 161.653C261.353 161.4 261.274 161.141 261.213 160.877C261.137 160.556 261.082 160.23 261.05 159.901C261.028 159.574 261.028 159.245 261.05 158.918C261.067 158.648 261.101 158.379 261.149 158.113C261.164 158.012 261.186 157.912 261.213 157.814C261.213 157.721 261.249 157.643 261.263 157.586C261.277 157.529 261.306 157.387 261.306 157.387Z" fill="#263238"/>
<path d="M263.207 171.162C263.207 171.162 265.828 168.605 271.306 168.605C276.783 168.605 279.59 171.162 279.59 171.162C277.118 172.654 274.285 173.442 271.398 173.442C268.511 173.442 265.679 172.654 263.207 171.162Z" fill="#4286EF"/>
<path d="M183.995 173.726H238.442C239.085 173.727 239.722 173.602 240.316 173.356C240.91 173.11 241.45 172.75 241.904 172.295C242.359 171.841 242.719 171.301 242.965 170.707C243.211 170.113 243.336 169.476 243.336 168.833V153.035L249.34 147.707H183.995C183.352 147.707 182.716 147.833 182.122 148.079C181.529 148.325 180.989 148.686 180.535 149.14C180.08 149.594 179.72 150.134 179.474 150.727C179.228 151.321 179.102 151.957 179.102 152.6V168.833C179.101 169.476 179.227 170.113 179.472 170.707C179.718 171.301 180.078 171.841 180.533 172.295C180.987 172.75 181.527 173.11 182.121 173.356C182.715 173.602 183.352 173.727 183.995 173.726Z" fill="#EBEBEB"/>
<path d="M235.992 155.428C235.992 155.535 224.781 155.613 210.948 155.613C197.116 155.613 185.904 155.535 185.904 155.428C185.904 155.321 197.116 155.243 210.948 155.243C224.781 155.243 235.992 155.328 235.992 155.428Z" fill="white"/>
<path d="M235.992 159.659C235.992 159.766 224.781 159.844 210.948 159.844C197.116 159.844 185.904 159.766 185.904 159.659C185.904 159.552 197.116 159.474 210.948 159.474C224.781 159.474 235.992 159.559 235.992 159.659Z" fill="white"/>
<path d="M235.992 163.89C235.992 163.99 224.781 164.075 210.948 164.075C197.116 164.075 185.904 163.99 185.904 163.89C185.904 163.79 197.116 163.705 210.948 163.705C224.781 163.705 235.992 163.79 235.992 163.89Z" fill="white"/>
<path d="M235.992 168.121C235.992 168.221 224.781 168.306 210.948 168.306C197.116 168.306 185.904 168.221 185.904 168.121C185.904 168.021 197.116 167.936 210.948 167.936C224.781 167.936 235.992 168.014 235.992 168.121Z" fill="white"/>
<path d="M271.398 261.936C280.222 261.936 287.375 254.799 287.375 245.995C287.375 237.191 280.222 230.054 271.398 230.054C262.575 230.054 255.422 237.191 255.422 245.995C255.422 254.799 262.575 261.936 271.398 261.936Z" fill="#E0E0E0"/>
<path d="M275.773 255.419H267.368C267.225 255.419 267.084 255.39 266.952 255.335C266.82 255.281 266.7 255.2 266.6 255.099C266.499 254.998 266.42 254.877 266.366 254.745C266.312 254.613 266.284 254.472 266.285 254.329C266.285 254.042 266.399 253.766 266.602 253.563C266.805 253.36 267.081 253.246 267.368 253.246H275.773C276.06 253.246 276.335 253.36 276.538 253.563C276.741 253.766 276.855 254.042 276.855 254.329C276.856 254.472 276.829 254.613 276.775 254.745C276.721 254.877 276.642 254.998 276.541 255.099C276.44 255.2 276.321 255.281 276.189 255.335C276.057 255.39 275.916 255.419 275.773 255.419Z" fill="#263238"/>
<path d="M272.047 235.631H271.307V239.364H272.047V235.631Z" fill="#263238"/>
<path d="M260.786 250.554C261.982 250.554 262.952 249.584 262.952 248.388C262.952 247.192 261.982 246.223 260.786 246.223C259.591 246.223 258.621 247.192 258.621 248.388C258.621 249.584 259.591 250.554 260.786 250.554Z" fill="#4286EF"/>
<path d="M282.681 250.404C283.877 250.404 284.846 249.435 284.846 248.239C284.846 247.043 283.877 246.073 282.681 246.073C281.485 246.073 280.516 247.043 280.516 248.239C280.516 249.435 281.485 250.404 282.681 250.404Z" fill="#4286EF"/>
<path d="M271.997 238.58C271.997 238.58 280.815 238.473 282.211 246.109C283.607 253.745 276.149 253.894 274.005 254.037C273.037 254.101 270.957 254.108 269.119 254.079C265.052 254.008 262.181 253.218 261.206 249.45C261.089 249.007 261.015 248.553 260.985 248.096C260.728 243.965 263.52 238.374 271.997 238.58Z" fill="#4286EF"/>
<path d="M265.602 250.212L278.423 250.411C279.068 250.421 279.69 250.174 280.154 249.725C280.617 249.277 280.883 248.663 280.895 248.018C280.902 247.373 280.654 246.751 280.204 246.289C279.754 245.827 279.139 245.563 278.494 245.553L265.673 245.347C265.028 245.337 264.406 245.584 263.943 246.033C263.479 246.481 263.213 247.095 263.201 247.74C263.197 248.06 263.255 248.378 263.373 248.675C263.491 248.972 263.667 249.244 263.89 249.473C264.113 249.703 264.379 249.886 264.672 250.013C264.966 250.139 265.282 250.207 265.602 250.212Z" fill="#263238"/>
<path d="M275.758 247.754C275.775 247.856 275.812 247.953 275.867 248.04C275.922 248.127 275.993 248.203 276.077 248.262C276.161 248.322 276.256 248.364 276.356 248.387C276.457 248.41 276.561 248.413 276.662 248.395C276.764 248.378 276.861 248.341 276.948 248.286C277.035 248.231 277.111 248.16 277.17 248.076C277.23 247.992 277.272 247.897 277.295 247.797C277.318 247.696 277.321 247.592 277.303 247.491C277.292 247.382 277.259 247.277 277.205 247.183C277.151 247.088 277.078 247.005 276.991 246.94C276.903 246.875 276.803 246.829 276.697 246.805C276.591 246.781 276.48 246.78 276.374 246.801C276.267 246.821 276.165 246.864 276.076 246.927C275.986 246.989 275.911 247.069 275.854 247.162C275.798 247.256 275.761 247.359 275.747 247.468C275.733 247.576 275.741 247.685 275.772 247.79L275.758 247.754Z" fill="white"/>
<path d="M266.805 247.612C266.835 247.764 266.909 247.904 267.018 248.014C267.127 248.124 267.267 248.199 267.418 248.23C267.57 248.261 267.728 248.246 267.871 248.187C268.015 248.129 268.137 248.029 268.224 247.9C268.311 247.772 268.357 247.621 268.358 247.466C268.359 247.311 268.313 247.159 268.228 247.03C268.142 246.901 268.02 246.8 267.878 246.74C267.735 246.68 267.577 246.664 267.425 246.693C267.324 246.713 267.228 246.752 267.142 246.809C267.056 246.866 266.982 246.939 266.925 247.024C266.867 247.109 266.827 247.205 266.807 247.306C266.786 247.407 266.786 247.511 266.805 247.612Z" fill="white"/>
<path d="M272.895 235.553C272.895 235.794 272.824 236.029 272.69 236.23C272.556 236.43 272.366 236.586 272.143 236.678C271.921 236.77 271.676 236.795 271.439 236.748C271.203 236.701 270.986 236.585 270.816 236.414C270.645 236.244 270.529 236.027 270.482 235.791C270.435 235.554 270.46 235.309 270.552 235.087C270.644 234.864 270.8 234.674 271 234.54C271.201 234.406 271.436 234.335 271.677 234.335C272 234.335 272.31 234.463 272.538 234.692C272.767 234.92 272.895 235.23 272.895 235.553Z" fill="#4286EF"/>
<path d="M273.515 247.391C273.515 247.391 273.565 247.455 273.593 247.583C273.615 247.765 273.598 247.95 273.544 248.125C273.463 248.394 273.316 248.64 273.116 248.837C272.869 249.084 272.545 249.237 272.197 249.272C271.85 249.3 271.503 249.21 271.214 249.015C270.986 248.86 270.798 248.653 270.666 248.41C270.582 248.246 270.534 248.066 270.523 247.883C270.523 247.754 270.523 247.683 270.566 247.683C270.609 247.683 270.637 247.954 270.872 248.281C271.007 248.471 271.179 248.631 271.378 248.752C271.618 248.889 271.893 248.953 272.169 248.937C272.434 248.903 272.683 248.788 272.881 248.609C273.058 248.457 273.201 248.271 273.301 248.061C273.487 247.676 273.458 247.398 273.515 247.391Z" fill="white"/>
<path d="M282.197 245.86C282.197 245.86 282.197 245.931 282.261 246.052C282.29 246.126 282.314 246.202 282.332 246.28C282.332 246.365 282.382 246.465 282.403 246.579C282.457 246.845 282.495 247.114 282.517 247.384C282.542 247.716 282.542 248.049 282.517 248.381C282.489 248.713 282.434 249.041 282.354 249.364C282.287 249.629 282.202 249.888 282.097 250.141C282.062 250.238 282.022 250.333 281.976 250.425C281.946 250.499 281.911 250.571 281.869 250.639L281.77 250.81C281.788 250.745 281.815 250.683 281.848 250.625C281.848 250.568 281.905 250.497 281.94 250.411C281.976 250.326 282.019 250.233 282.054 250.126C282.151 249.873 282.23 249.614 282.29 249.35C282.366 249.031 282.421 248.707 282.453 248.381C282.474 248.051 282.474 247.721 282.453 247.391C282.436 247.123 282.403 246.857 282.354 246.593C282.339 246.49 282.317 246.388 282.29 246.287C282.29 246.194 282.254 246.123 282.24 246.059C282.215 245.995 282.201 245.928 282.197 245.86Z" fill="#263238"/>
<path d="M261.306 245.91C261.275 245.971 261.252 246.035 261.235 246.102C261.235 246.159 261.192 246.237 261.163 246.323C261.135 246.408 261.114 246.515 261.092 246.629C261.038 246.894 261.002 247.163 260.985 247.434C260.961 247.766 260.961 248.099 260.985 248.431C261.014 248.762 261.069 249.091 261.149 249.414C261.215 249.679 261.301 249.938 261.406 250.19C261.441 250.297 261.491 250.39 261.527 250.475C261.562 250.561 261.605 250.632 261.634 250.689L261.733 250.86C261.716 250.795 261.69 250.732 261.655 250.675C261.655 250.618 261.598 250.547 261.562 250.461C261.527 250.376 261.484 250.283 261.448 250.169C261.353 249.918 261.274 249.661 261.213 249.4C261.137 249.079 261.082 248.753 261.05 248.424C261.028 248.097 261.028 247.768 261.05 247.441C261.067 247.171 261.101 246.902 261.149 246.636C261.164 246.535 261.186 246.435 261.213 246.337C261.213 246.244 261.249 246.166 261.263 246.109C261.277 246.052 261.306 245.91 261.306 245.91Z" fill="#263238"/>
<path d="M263.207 259.685C263.207 259.685 265.828 257.128 271.306 257.128C276.783 257.128 279.59 259.685 279.59 259.685C277.118 261.177 274.285 261.965 271.398 261.965C268.511 261.965 265.679 261.177 263.207 259.685Z" fill="#4286EF"/>
<path d="M183.995 262.249H238.442C239.085 262.25 239.722 262.124 240.316 261.879C240.91 261.633 241.45 261.273 241.904 260.818C242.359 260.364 242.719 259.824 242.965 259.23C243.211 258.636 243.336 257.999 243.336 257.356V241.558L249.34 236.23H183.995C183.352 236.23 182.716 236.356 182.122 236.602C181.529 236.848 180.989 237.208 180.535 237.663C180.08 238.117 179.72 238.657 179.474 239.25C179.228 239.844 179.102 240.48 179.102 241.123V257.356C179.101 257.999 179.227 258.636 179.472 259.23C179.718 259.824 180.078 260.364 180.533 260.818C180.987 261.273 181.527 261.633 182.121 261.879C182.715 262.124 183.352 262.25 183.995 262.249Z" fill="#EBEBEB"/>
<path d="M183.995 286.959H238.442C239.085 286.959 239.722 286.832 240.316 286.585C240.911 286.339 241.45 285.978 241.905 285.523C242.359 285.068 242.72 284.527 242.965 283.933C243.211 283.338 243.336 282.701 243.335 282.058V276.823L249.34 271.495H183.995C183.352 271.495 182.716 271.621 182.122 271.867C181.529 272.113 180.989 272.474 180.535 272.928C180.08 273.383 179.72 273.922 179.474 274.516C179.228 275.109 179.102 275.746 179.102 276.388V282.087C179.107 283.381 179.625 284.62 180.542 285.533C181.459 286.446 182.701 286.959 183.995 286.959Z" fill="#EBEBEB"/>
<path d="M235.992 243.929C235.992 244.036 224.781 244.115 210.948 244.115C197.116 244.115 185.904 244.036 185.904 243.929C185.904 243.823 197.116 243.744 210.948 243.744C224.781 243.744 235.992 243.851 235.992 243.929Z" fill="white"/>
<path d="M235.992 248.203C235.992 248.303 224.781 248.388 210.948 248.388C197.116 248.388 185.904 248.303 185.904 248.203C185.904 248.103 197.116 248.018 210.948 248.018C224.781 248.018 235.992 248.082 235.992 248.203Z" fill="white"/>
<path d="M235.992 252.413C235.992 252.512 224.781 252.598 210.948 252.598C197.116 252.598 185.904 252.512 185.904 252.413C185.904 252.313 197.116 252.228 210.948 252.228C224.781 252.228 235.992 252.306 235.992 252.413Z" fill="white"/>
<path d="M235.992 256.644C235.992 256.743 224.781 256.829 210.948 256.829C197.116 256.829 185.904 256.743 185.904 256.644C185.904 256.544 197.116 256.458 210.948 256.458C224.781 256.458 235.992 256.537 235.992 256.644Z" fill="white"/>
<path d="M236.162 279.451C236.162 279.551 225.064 279.636 211.381 279.636C197.698 279.636 186.594 279.551 186.594 279.451C186.594 279.351 197.691 279.266 211.381 279.266C225.071 279.266 236.162 279.344 236.162 279.451Z" fill="white"/>
<path d="M53.9599 269.137C54.9193 269.368 55.8221 269.791 56.6141 270.38C57.406 270.968 58.0708 271.711 58.5684 272.563C59.553 274.279 60.1351 276.196 60.2708 278.169C60.6341 281.958 59.3163 286.139 57.6781 289.566C53.9813 287.5 52.2647 282.906 51.5382 280.519C50.3914 276.752 50.6051 269.237 53.9599 269.123" fill="#455A64"/>
<path d="M62.5936 294.922C62.1522 293.913 61.9856 292.804 62.1107 291.71C62.2358 290.615 62.6481 289.573 63.3059 288.689C63.9829 287.819 64.8269 287.093 65.7883 286.554C66.7497 286.015 67.8091 285.673 68.9045 285.548C69.3961 285.442 69.9048 285.442 70.3963 285.549C70.8878 285.656 71.3506 285.867 71.7536 286.168C72.0812 286.516 72.3095 286.945 72.4148 287.411C72.52 287.877 72.4983 288.363 72.352 288.818C72.0493 289.724 71.5139 290.534 70.7992 291.168C68.4557 293.433 65.7704 295.193 62.5224 294.922" fill="#455A64"/>
<path d="M60.9975 307.123C60.9554 306.864 60.9387 306.602 60.9476 306.34C60.9476 305.784 60.9476 305.065 60.8906 304.203C60.7455 301.841 60.9861 299.471 61.6029 297.187C62.2651 294.896 63.5265 292.823 65.2569 291.182C65.7868 290.695 66.3726 290.272 67.002 289.922C67.17 289.826 67.3437 289.74 67.522 289.665C67.5809 289.629 67.6462 289.605 67.7143 289.594C66.8847 290.092 66.1068 290.672 65.3923 291.325C63.7203 292.971 62.4947 295.015 61.8308 297.265C61.2179 299.525 60.9466 301.863 61.026 304.203C61.026 305.108 61.026 305.834 61.026 306.34C61.0356 306.601 61.0261 306.863 60.9975 307.123Z" fill="#263238"/>
<path d="M54.3017 274.878C54.3473 274.981 54.383 275.089 54.4085 275.199C54.4798 275.441 54.5652 275.754 54.665 276.139C54.8858 276.958 55.1921 278.148 55.5482 279.622C56.2605 282.571 57.2149 286.659 58.1552 291.19C59.0954 295.72 59.8504 299.851 60.3561 302.842C60.6054 304.338 60.7977 305.549 60.926 306.404C60.9829 306.803 61.0257 307.116 61.0613 307.373C61.0726 307.486 61.0726 307.601 61.0613 307.715C61.0244 307.605 60.9959 307.493 60.9758 307.38C60.926 307.13 60.869 306.817 60.7906 306.418C60.6268 305.556 60.406 304.353 60.1353 302.892C59.5797 299.908 58.7962 295.77 57.856 291.261C56.9158 286.752 56.0041 282.642 55.3345 279.686C54.9997 278.262 54.7291 277.044 54.5367 276.182C54.4513 275.79 54.38 275.469 54.3302 275.227C54.3072 275.112 54.2976 274.995 54.3017 274.878Z" fill="#263238"/>
<path d="M57.6782 298.32C56.8215 296.161 55.4642 294.237 53.718 292.707C51.9718 291.176 49.8868 290.082 47.6349 289.516C46.4881 289.238 45.0636 289.202 44.3655 290.157C43.6675 291.111 44.159 292.465 44.8071 293.455C46.1929 295.49 48.1487 297.072 50.4295 298.001C52.7103 298.929 55.2146 299.164 57.6283 298.676" fill="#455A64"/>
<path d="M48.889 292.885C49.1302 292.915 49.3684 292.965 49.6013 293.034C49.8832 293.1 50.1614 293.181 50.4347 293.277C50.7481 293.39 51.1469 293.49 51.5102 293.668C51.8735 293.846 52.3365 294.017 52.771 294.259C53.248 294.501 53.7095 294.772 54.1528 295.071C55.174 295.749 56.1134 296.543 56.9521 297.436C57.7745 298.342 58.4914 299.339 59.0889 300.407C59.3522 300.868 59.59 301.344 59.8012 301.831C59.9836 302.259 60.143 302.697 60.2784 303.142C60.4209 303.541 60.4779 303.925 60.5634 304.253C60.6316 304.535 60.6839 304.82 60.7201 305.108C60.7637 305.343 60.7875 305.581 60.7913 305.82C60.7272 305.82 60.6132 304.78 60.079 303.177C59.938 302.744 59.7739 302.318 59.5875 301.902C59.3763 301.415 59.1385 300.939 58.8752 300.478C58.271 299.434 57.5545 298.46 56.7384 297.572C55.9107 296.697 54.994 295.912 54.0032 295.228C53.5331 294.929 53.0915 294.637 52.6499 294.416C52.2508 294.189 51.8394 293.985 51.4176 293.804C49.9004 293.177 48.8676 292.942 48.889 292.885Z" fill="#263238"/>
<path d="M71.5262 84.1637L68.8908 75.9368C72.6392 69.854 73.9768 62.589 72.6406 55.57C71.3044 48.5511 67.3911 42.2857 61.6699 38.0056C55.9486 33.7256 48.8333 31.7403 41.7226 32.4402C34.612 33.14 28.0202 36.4743 23.2432 41.7877C18.4662 47.101 15.8494 54.009 15.9072 61.1538C15.965 68.2986 18.6933 75.1634 23.5557 80.3987C28.4181 85.634 35.063 88.8612 42.184 89.4459C49.3051 90.0305 56.3874 87.9304 62.0386 83.5582L71.5262 84.1637Z" fill="#FAFAFA"/>
<path d="M71.5252 84.1637H70.9269L69.1177 84.0711L61.9949 83.6793C61.9839 83.6794 61.9731 83.6772 61.9631 83.6728C61.9531 83.6684 61.9441 83.662 61.9368 83.6539C61.9294 83.6459 61.9238 83.6364 61.9203 83.626C61.9168 83.6157 61.9155 83.6047 61.9165 83.5939C61.9134 83.5798 61.9134 83.5652 61.9165 83.5511L62.0305 83.6651C57.0811 87.531 50.9948 89.6566 44.7148 89.7124C43.1287 89.7039 41.5455 89.5778 39.9781 89.3349C32.6953 88.195 26.1357 84.2822 21.6723 78.4156C19.1866 75.113 17.4356 71.3172 16.5368 67.2825C15.5601 62.9927 15.5991 58.534 16.6507 54.2619C16.7861 53.7206 16.9285 53.1721 17.071 52.6308C17.2134 52.0895 17.4485 51.5624 17.6337 51.0282C17.8142 50.4879 18.0234 49.9577 18.2605 49.4398C18.5027 48.9269 18.752 48.4141 18.9728 47.8941C19.2179 47.3743 19.4987 46.8721 19.8133 46.3912L20.7179 44.9096L21.7578 43.4851L22.2849 42.7728C22.463 42.5448 22.6695 42.3383 22.8619 42.1175C25.9421 38.5759 29.8496 35.8502 34.2371 34.1826C38.4139 32.5911 42.899 31.9747 47.3503 32.3805C51.5329 32.7964 55.5724 34.1291 59.1813 36.2839C65.5949 40.0929 70.2728 46.2501 72.2233 53.4499C72.6353 54.9926 72.9306 56.564 73.1065 58.151C73.2206 59.6345 73.2467 61.1234 73.1849 62.6099C72.9119 67.3474 71.4574 71.9412 68.9539 75.9724V75.9083C69.7944 78.5865 70.4354 80.6521 70.8771 82.0625C71.0907 82.7747 71.2474 83.2662 71.3614 83.6295L71.5181 84.1566C71.5181 84.1566 71.4469 83.9643 71.3258 83.6081L70.8058 82.034C70.35 80.6094 69.6733 78.6007 68.8043 75.9582C68.7967 75.9375 68.7967 75.9147 68.8043 75.8941C71.2606 71.8719 72.6779 67.3019 72.9284 62.5957C72.9831 61.123 72.9498 59.6483 72.8287 58.1795C72.6508 56.6064 72.3532 55.049 71.9384 53.5212C70.4106 47.9786 67.2418 43.0279 62.8483 39.3196C58.4548 35.6113 53.0422 33.319 47.3218 32.7438C42.9266 32.3416 38.4976 32.9482 34.3724 34.5174C30.0516 36.1707 26.2038 38.8615 23.1681 42.3525C22.983 42.5733 22.7764 42.7728 22.5983 43.0007L22.0784 43.713L21.0527 45.0877L20.1694 46.555C19.856 47.0342 19.5752 47.5339 19.3289 48.0508C19.0868 48.5565 18.8446 49.0694 18.6166 49.5751C18.3843 50.086 18.1798 50.6091 18.0041 51.1421C17.8189 51.6692 17.5981 52.1892 17.4414 52.7234C17.2847 53.2576 17.1636 53.799 17.0282 54.3332C15.9954 58.5396 15.9515 62.9281 16.9 67.1543C18.1343 72.7041 21.0071 77.7553 25.1461 81.653C29.2851 85.5507 34.4995 88.1153 40.1134 89.0144C41.6666 89.2583 43.2353 89.3892 44.8074 89.4061C46.2748 89.3999 47.7395 89.2784 49.1879 89.0429C53.8549 88.2825 58.2603 86.376 62.0091 83.4941C62.0164 83.4864 62.0252 83.4802 62.035 83.476C62.0448 83.4718 62.0554 83.4696 62.0661 83.4696C62.0767 83.4696 62.0873 83.4718 62.0971 83.476C62.1069 83.4802 62.1157 83.4864 62.1231 83.4941C62.1335 83.5087 62.1391 83.5261 62.1391 83.544C62.1391 83.5619 62.1335 83.5793 62.1231 83.5939L62.0661 83.4657L69.1035 83.95L70.9269 84.0782L71.5252 84.1637Z" fill="#263238"/>
<path d="M36.5089 60.9717C36.5089 61.545 36.3389 62.1055 36.0204 62.5823C35.7018 63.059 35.2491 63.4306 34.7193 63.65C34.1896 63.8694 33.6067 63.9268 33.0444 63.815C32.482 63.7031 31.9655 63.427 31.56 63.0216C31.1546 62.6161 30.8785 62.0996 30.7666 61.5372C30.6548 60.9749 30.7122 60.392 30.9316 59.8623C31.151 59.3325 31.5226 58.8798 31.9993 58.5612C32.4761 58.2427 33.0366 58.0727 33.6099 58.0727C34.3782 58.0745 35.1145 58.3806 35.6578 58.9238C36.201 59.4671 36.5071 60.2034 36.5089 60.9717Z" fill="#263238"/>
<path d="M48.1203 60.9717C48.1203 61.545 47.9503 62.1055 47.6317 62.5823C47.3132 63.059 46.8604 63.4306 46.3307 63.65C45.8009 63.8694 45.2181 63.9268 44.6557 63.815C44.0934 63.7031 43.5768 63.427 43.1714 63.0216C42.7659 62.6161 42.4898 62.0996 42.378 61.5372C42.2661 60.9749 42.3235 60.392 42.5429 59.8623C42.7624 59.3325 43.1339 58.8798 43.6107 58.5612C44.0874 58.2427 44.6479 58.0727 45.2213 58.0727C45.9896 58.0745 46.7258 58.3806 47.2691 58.9238C47.8124 59.4671 48.1184 60.2034 48.1203 60.9717Z" fill="#263238"/>
<path d="M59.7006 59.5257C59.9864 60.0223 60.1187 60.5924 60.0807 61.1641C60.0427 61.7358 59.8362 62.2834 59.4872 62.7378C59.1382 63.1921 58.6624 63.5329 58.1199 63.7171C57.5773 63.9012 56.9924 63.9205 56.4389 63.7724C55.8854 63.6244 55.3882 63.3156 55.0101 62.8852C54.632 62.4548 54.3899 61.9219 54.3144 61.354C54.2388 60.7861 54.3333 60.2085 54.5858 59.6942C54.8384 59.1799 55.2376 58.752 55.7332 58.4644C56.0632 58.2729 56.4278 58.1485 56.806 58.0982C57.1842 58.0479 57.5686 58.0728 57.9372 58.1714C58.3058 58.27 58.6513 58.4404 58.9539 58.6728C59.2565 58.9052 59.5103 59.195 59.7006 59.5257Z" fill="#263238"/>
<path d="M60.8544 189.083L30.8529 185.978L18.1457 157.137L8.27344 159.709C8.27344 159.709 15.5672 190.187 23.73 194.91C31.8928 199.632 59.7788 200.48 59.7788 200.48L60.8544 189.083Z" fill="#4286EF"/>
<path d="M76.8037 203.752C81.6854 198.26 81.1901 189.85 75.6976 184.968C70.205 180.086 61.795 180.582 56.9133 186.074C52.0316 191.567 52.5268 199.977 58.0194 204.858C63.512 209.74 71.922 209.245 76.8037 203.752Z" fill="#263238"/>
<path d="M66.86 208.23C63.7768 208.23 60.789 207.161 58.4056 205.205C56.0222 203.249 54.3908 200.527 53.7893 197.503C53.1878 194.479 53.6534 191.34 55.1069 188.62C56.5603 185.901 58.9116 183.77 61.7602 182.59C64.6087 181.41 67.7782 181.255 70.7287 182.15C73.6792 183.045 76.228 184.935 77.941 187.499C79.6539 190.062 80.425 193.141 80.1228 196.209C79.8206 199.277 78.4638 202.146 76.2836 204.326C75.0489 205.568 73.5803 206.552 71.9627 207.222C70.3452 207.892 68.6109 208.234 66.86 208.23ZM66.86 181.619C63.7851 181.615 60.8042 182.679 58.4252 184.627C56.0462 186.575 54.4163 189.288 53.8132 192.303C53.2102 195.318 53.6712 198.449 55.1179 201.163C56.5645 203.876 58.9073 206.004 61.7469 207.184C64.5865 208.364 67.7474 208.522 70.6909 207.633C73.6344 206.744 76.1784 204.861 77.8896 202.306C79.6007 199.751 80.3731 196.682 80.075 193.622C79.777 190.561 78.427 187.699 76.2551 185.522C75.025 184.282 73.5612 183.299 71.9485 182.629C70.3359 181.959 68.6063 181.616 66.86 181.619Z" fill="#263238"/>
<path d="M28.1633 197.188C33.5224 195.902 36.8238 190.514 35.5372 185.155C34.2506 179.796 28.8632 176.495 23.5042 177.781C18.1451 179.068 14.8438 184.455 16.1304 189.814C17.417 195.173 22.8043 198.475 28.1633 197.188Z" fill="#263238"/>
<path d="M18.2559 159.469C21.4409 156.284 21.4409 151.12 18.2559 147.935C15.0709 144.75 9.907 144.75 6.72201 147.935C3.53702 151.12 3.53702 156.284 6.72201 159.469C9.907 162.654 15.0709 162.654 18.2559 159.469Z" fill="#263238"/>
<path d="M25.2019 149.289L18.4864 154.96L16.0645 152.092L22.78 146.421C23.1336 146.122 23.5913 145.976 24.0525 146.015C24.5137 146.054 24.9406 146.274 25.2392 146.628L25.4046 146.824C25.5536 146.999 25.6665 147.201 25.737 147.42C25.8074 147.639 25.834 147.869 25.8152 148.098C25.7963 148.327 25.7324 148.55 25.6272 148.755C25.5219 148.959 25.3774 149.14 25.2019 149.289Z" fill="#263238"/>
<path d="M16.6719 138.903V147.45C16.6719 147.516 16.6456 147.58 16.5989 147.627C16.5521 147.673 16.4887 147.7 16.4226 147.7H13.1746C13.1084 147.7 13.045 147.673 12.9983 147.627C12.9515 147.58 12.9253 147.516 12.9253 147.45V138.903C12.9253 138.44 13.1091 137.996 13.4364 137.669C13.7637 137.342 14.2075 137.158 14.6704 137.158H14.9268C15.3896 137.158 15.8335 137.342 16.1608 137.669C16.488 137.996 16.6719 138.44 16.6719 138.903Z" fill="#263238"/>
<path d="M10.6232 138.935L12.4892 147.276C12.5036 147.341 12.4918 147.409 12.4564 147.464C12.421 147.52 12.3648 147.56 12.3003 147.574L9.13065 148.283C9.06612 148.298 8.99851 148.286 8.94268 148.25C8.88685 148.215 8.84737 148.159 8.83294 148.094L6.96692 139.753C6.86588 139.301 6.9484 138.828 7.19633 138.437C7.44426 138.047 7.83728 137.77 8.28895 137.669L8.53918 137.613C8.99085 137.512 9.46415 137.595 9.85497 137.843C10.2458 138.09 10.5221 138.484 10.6232 138.935Z" fill="#263238"/>
<path d="M4.11669 141.025L8.39041 148.428C8.42347 148.485 8.43242 148.553 8.4153 148.617C8.39819 148.681 8.35641 148.735 8.29915 148.768L5.48628 150.392C5.42902 150.425 5.36098 150.434 5.29711 150.417C5.23325 150.4 5.17879 150.358 5.14573 150.301L0.872014 142.899C0.640599 142.498 0.57789 142.022 0.697679 141.575C0.817468 141.128 1.10995 140.746 1.51077 140.515L1.73284 140.387C2.13366 140.155 2.60999 140.093 3.05705 140.212C3.50411 140.332 3.88528 140.625 4.11669 141.025Z" fill="#263238"/>
<path d="M191.245 263.795L200.225 259.976L174.313 199.05L165.333 202.869L191.245 263.795Z" fill="#4286EF"/>
<path d="M175.6 204.872C180.35 199.265 179.655 190.869 174.049 186.12C168.442 181.37 160.046 182.064 155.296 187.671C150.546 193.278 151.241 201.674 156.847 206.424C162.454 211.174 170.85 210.479 175.6 204.872Z" fill="#263238"/>
<path d="M165.475 209.626C163.388 209.627 161.329 209.138 159.465 208.198C157.602 207.258 155.984 205.894 154.744 204.215C153.504 202.536 152.675 200.589 152.324 198.531C151.974 196.473 152.111 194.362 152.725 192.367C153.454 190.014 154.821 187.909 156.674 186.286C158.527 184.663 160.793 183.586 163.222 183.174C165.65 182.762 168.146 183.031 170.43 183.953C172.715 184.874 174.699 186.41 176.163 188.391C177.626 190.373 178.512 192.721 178.721 195.175C178.93 197.63 178.455 200.094 177.347 202.294C176.24 204.494 174.544 206.345 172.448 207.639C170.352 208.933 167.939 209.621 165.475 209.626ZM165.475 183C163.016 183.003 160.606 183.688 158.513 184.978C156.42 186.269 154.726 188.115 153.619 190.311C152.513 192.507 152.037 194.967 152.245 197.417C152.454 199.867 153.338 202.212 154.799 204.19C156.26 206.168 158.241 207.701 160.522 208.62C162.803 209.539 165.294 209.807 167.719 209.395C170.143 208.982 172.405 207.905 174.254 206.283C176.102 204.662 177.465 202.559 178.19 200.209C179.224 196.842 178.881 193.202 177.234 190.087C175.588 186.973 172.773 184.64 169.407 183.599C168.12 183.2 166.78 182.998 165.433 183H165.475Z" fill="#263238"/>
<path d="M192.388 236.054C193.863 230.744 190.755 225.243 185.445 223.767C180.135 222.292 174.634 225.4 173.158 230.71C171.683 236.02 174.791 241.521 180.101 242.997C185.411 244.473 190.912 241.364 192.388 236.054Z" fill="#263238"/>
<path d="M197.82 272.599C202.324 272.599 205.975 268.947 205.975 264.443C205.975 259.939 202.324 256.288 197.82 256.288C193.315 256.288 189.664 259.939 189.664 264.443C189.664 268.947 193.315 272.599 197.82 272.599Z" fill="#263238"/>
<path d="M187.152 272.657L191.719 265.163L194.925 267.117L190.358 274.61C190.117 275.005 189.729 275.289 189.279 275.398C188.829 275.507 188.355 275.433 187.959 275.192L187.74 275.059C187.544 274.94 187.372 274.783 187.236 274.598C187.1 274.413 187.002 274.203 186.947 273.98C186.893 273.757 186.883 273.525 186.918 273.298C186.953 273.071 187.033 272.853 187.152 272.657Z" fill="#263238"/>
<path d="M198.524 279.803L195.818 271.696C195.797 271.633 195.802 271.565 195.831 271.505C195.861 271.446 195.913 271.401 195.976 271.38L199.056 270.352C199.119 270.331 199.188 270.336 199.247 270.365C199.306 270.395 199.351 270.447 199.372 270.509L202.078 278.617C202.148 278.835 202.174 279.065 202.156 279.294C202.137 279.522 202.073 279.744 201.968 279.948C201.863 280.152 201.719 280.333 201.544 280.481C201.369 280.629 201.167 280.742 200.949 280.811L200.705 280.893C200.272 281.032 199.801 280.995 199.393 280.792C198.986 280.588 198.674 280.234 198.524 279.803Z" fill="#263238"/>
<path d="M204.258 277.86L199.846 270.539C199.829 270.511 199.818 270.48 199.813 270.448C199.809 270.415 199.81 270.382 199.818 270.35C199.826 270.319 199.84 270.289 199.859 270.262C199.879 270.236 199.903 270.214 199.931 270.197L202.713 268.521C202.741 268.504 202.772 268.493 202.805 268.488C202.837 268.483 202.87 268.484 202.902 268.492C202.934 268.5 202.964 268.514 202.99 268.534C203.016 268.553 203.039 268.577 203.055 268.606L207.467 275.927C207.706 276.323 207.777 276.798 207.666 277.247C207.554 277.697 207.269 278.083 206.873 278.322L206.653 278.454C206.257 278.693 205.781 278.765 205.332 278.653C204.883 278.542 204.496 278.257 204.258 277.86Z" fill="#263238"/>
<path d="M209.764 273.824L203.366 268.155C203.317 268.112 203.287 268.05 203.283 267.984C203.279 267.918 203.301 267.853 203.345 267.804L205.494 265.378C205.538 265.328 205.6 265.298 205.666 265.294C205.732 265.29 205.797 265.313 205.846 265.356L212.244 271.025C212.59 271.332 212.801 271.764 212.829 272.226C212.857 272.688 212.7 273.142 212.393 273.488L212.223 273.68C211.915 274.024 211.484 274.233 211.023 274.26C210.562 274.286 210.11 274.13 209.764 273.824Z" fill="#263238"/>
<path d="M62.9062 181.063C62.9062 181.063 63.8678 274.472 116.285 276.296C168.702 278.119 170.903 181.733 170.903 181.063C170.903 181.063 164.713 167.138 116.905 167.679C69.096 168.221 62.9062 181.063 62.9062 181.063Z" fill="#4286EF"/>
<path d="M92.3375 164.623H136.642C139.533 164.623 141.877 162.28 141.877 159.388V158.626C141.877 155.735 139.533 153.391 136.642 153.391H92.3375C89.4461 153.391 87.1022 155.735 87.1022 158.626V159.388C87.1022 162.28 89.4461 164.623 92.3375 164.623Z" fill="#263238"/>
<path d="M112.581 81.5638H116.406V62.2253H112.581V81.5638Z" fill="#263238"/>
<path d="M172.979 139.136C179.018 137.7 182.751 131.641 181.315 125.601C179.88 119.562 173.82 115.83 167.781 117.265C161.742 118.701 158.009 124.76 159.445 130.8C160.88 136.839 166.94 140.571 172.979 139.136Z" fill="#4286EF"/>
<path d="M59.4068 138.406C65.4606 137.033 69.255 131.012 67.8818 124.958C66.5087 118.904 60.4879 115.11 54.4341 116.483C48.3803 117.856 44.5858 123.877 45.959 129.931C47.3322 135.985 53.353 139.779 59.4068 138.406Z" fill="#4286EF"/>
<path d="M112.267 77.3685C112.267 77.3685 66.5667 76.82 59.3441 116.43C52.1215 156.04 90.7559 156.753 101.875 157.501C106.911 157.843 117.695 157.878 127.211 157.707C148.28 157.344 163.167 153.27 168.231 133.725C168.834 131.433 169.214 129.088 169.364 126.723C170.696 105.269 156.215 76.3143 112.267 77.3685Z" fill="#4286EF"/>
<path d="M145.418 137.656L79.0261 138.689C77.3696 138.718 75.7235 138.421 74.1822 137.813C72.6409 137.205 71.2345 136.3 70.0436 135.148C68.8528 133.996 67.9007 132.621 67.242 131.1C66.5833 129.58 66.2309 127.945 66.205 126.288C66.1767 124.631 66.4753 122.985 67.0838 121.444C67.6922 119.902 68.5986 118.496 69.751 117.305C70.9034 116.115 72.2793 115.163 73.7999 114.504C75.3205 113.845 76.9561 113.493 78.613 113.467L145.005 112.434C146.662 112.404 148.308 112.701 149.85 113.309C151.392 113.916 152.799 114.822 153.99 115.974C155.181 117.126 156.133 118.501 156.791 120.022C157.449 121.543 157.801 123.178 157.826 124.835C157.856 126.492 157.558 128.139 156.949 129.681C156.341 131.223 155.435 132.629 154.282 133.82C153.13 135.011 151.754 135.963 150.232 136.621C148.711 137.28 147.075 137.631 145.418 137.656Z" fill="#263238"/>
<path d="M92.8222 124.914C92.6677 125.699 92.284 126.42 91.7195 126.987C91.155 127.554 90.4351 127.941 89.6507 128.099C88.8664 128.257 88.0528 128.179 87.3129 127.874C86.573 127.57 85.94 127.053 85.4939 126.389C85.0478 125.724 84.8086 124.943 84.8067 124.143C84.8047 123.343 85.04 122.56 85.4828 121.894C85.9256 121.227 86.5561 120.707 87.2944 120.399C88.0328 120.091 88.846 120.009 89.6311 120.163C90.1527 120.265 90.6489 120.469 91.0916 120.763C91.5343 121.057 91.9146 121.436 92.211 121.877C92.5073 122.318 92.7138 122.813 92.8187 123.334C92.9235 123.855 92.9247 124.392 92.8222 124.914Z" fill="white"/>
<path d="M139.185 124.173C139.032 124.958 138.649 125.681 138.085 126.249C137.521 126.817 136.801 127.205 136.017 127.364C135.232 127.523 134.418 127.446 133.678 127.142C132.937 126.838 132.304 126.321 131.857 125.657C131.41 124.993 131.17 124.211 131.168 123.411C131.166 122.61 131.401 121.827 131.844 121.16C132.287 120.493 132.917 119.973 133.656 119.665C134.395 119.357 135.208 119.275 135.994 119.429C137.046 119.636 137.972 120.251 138.571 121.141C139.169 122.03 139.39 123.121 139.185 124.173Z" fill="white"/>
<path d="M132.511 218.159C132.251 221.723 130.94 225.131 128.743 227.95C126.547 230.769 123.564 232.874 120.171 233.997C116.778 235.121 113.129 235.214 109.683 234.263C106.238 233.313 103.152 231.362 100.815 228.658C98.4787 225.954 96.9964 222.618 96.5558 219.071C96.1152 215.524 96.7362 211.927 98.3402 208.733C99.9443 205.539 102.459 202.893 105.567 201.128C108.675 199.364 112.237 198.561 115.801 198.82C120.581 199.17 125.026 201.404 128.16 205.03C131.293 208.657 132.858 213.379 132.511 218.159Z" fill="#263238"/>
<path d="M127.618 217.803C127.428 220.401 126.471 222.884 124.87 224.938C123.269 226.993 121.094 228.526 118.621 229.345C116.148 230.163 113.488 230.23 110.977 229.537C108.466 228.843 106.217 227.421 104.515 225.449C102.812 223.478 101.733 221.046 101.412 218.461C101.092 215.876 101.546 213.254 102.716 210.926C103.886 208.599 105.719 206.671 107.985 205.386C110.251 204.101 112.847 203.516 115.445 203.707C117.17 203.832 118.853 204.296 120.399 205.073C121.945 205.849 123.322 206.923 124.453 208.232C125.583 209.541 126.445 211.06 126.988 212.702C127.531 214.345 127.745 216.078 127.618 217.803Z" fill="white"/>
<path d="M121.271 220.196C121.17 219.476 121.13 218.75 121.15 218.024C121.114 216.663 121.085 214.719 121.085 212.325L121.228 212.589L114.454 208.636H114.832L107.994 212.475C107.808 212.788 108.243 212.055 108.2 212.133V213.144V214.163C108.2 214.832 108.2 215.502 108.165 216.157C108.165 217.468 108.115 218.736 108.093 219.961L107.908 219.633L114.604 223.722H114.305C116.392 222.596 118.115 221.699 119.291 221.086C119.923 220.726 120.583 220.417 121.264 220.16C120.732 220.593 120.16 220.973 119.554 221.293C118.4 222.005 116.705 223.01 114.568 224.242L114.418 224.327L114.269 224.242L107.488 220.289L107.303 220.182V219.954C107.303 218.729 107.317 217.461 107.345 216.15C107.345 215.495 107.345 214.832 107.345 214.156V213.144V212.161C107.303 212.24 107.737 211.513 107.552 211.82L114.411 208.016L114.611 207.909L114.796 208.023L121.484 212.112L121.634 212.204V212.375C121.556 214.84 121.477 216.82 121.406 218.166C121.424 218.845 121.379 219.525 121.271 220.196Z" fill="#4286EF"/>
<path d="M118.954 66.2909C121.416 63.8291 121.416 59.8378 118.954 57.3761C116.492 54.9143 112.501 54.9143 110.039 57.3761C107.578 59.8378 107.578 63.8291 110.039 66.2909C112.501 68.7526 116.492 68.7526 118.954 66.2909Z" fill="#4286EF"/>
<path d="M104.426 123.047C104.725 123.083 104.576 124.472 105.459 126.374C105.959 127.465 106.688 128.437 107.596 129.223C108.66 130.159 109.984 130.748 111.392 130.911C112.808 131.002 114.218 130.665 115.438 129.942C116.471 129.342 117.364 128.528 118.059 127.556C119.27 125.868 119.377 124.451 119.676 124.472C119.797 124.472 119.918 124.828 119.918 125.498C119.891 126.452 119.648 127.387 119.206 128.233C118.542 129.511 117.561 130.598 116.357 131.388C114.868 132.437 113.054 132.923 111.24 132.757C109.426 132.591 107.73 131.785 106.456 130.484C105.416 129.489 104.651 128.243 104.234 126.865C103.937 125.946 103.859 124.971 104.006 124.016C104.127 123.354 104.312 123.026 104.426 123.047Z" fill="white"/>
<path d="M165.276 141.503C165.205 141.503 166.024 140.221 166.814 137.977C167.798 135.038 168.42 131.991 168.666 128.902C168.952 125.824 169.023 122.73 168.88 119.643C168.83 118.453 168.773 117.506 168.716 116.793C168.668 116.449 168.656 116.1 168.681 115.754C168.772 116.089 168.831 116.433 168.859 116.779C168.958 117.442 169.058 118.403 169.144 119.628C169.367 122.741 169.331 125.867 169.037 128.974C168.786 132.091 168.123 135.162 167.064 138.105C166.728 138.993 166.324 139.853 165.853 140.676C165.684 140.968 165.491 141.244 165.276 141.503Z" fill="#263238"/>
<path d="M59.4303 115.105C59.39 115.451 59.316 115.792 59.2095 116.124C59.1169 116.444 59.0172 116.836 58.9246 117.306C58.832 117.776 58.6895 118.289 58.604 118.88C58.3543 120.253 58.1878 121.64 58.1054 123.033C58.0096 124.737 58.0334 126.446 58.1767 128.147C58.3358 129.845 58.6119 131.53 59.0029 133.19C59.3299 134.548 59.7391 135.885 60.228 137.193C60.4204 137.756 60.6412 138.248 60.8192 138.689C60.9973 139.131 61.1683 139.501 61.3107 139.8C61.4731 140.108 61.6066 140.43 61.7096 140.762C61.5069 140.479 61.3305 140.179 61.1825 139.864C60.9811 139.508 60.7981 139.142 60.634 138.768C60.4346 138.34 60.1924 137.849 59.9859 137.286C59.457 135.981 59.0191 134.641 58.6753 133.276C58.2584 131.6 57.968 129.895 57.8063 128.176C57.6611 126.458 57.6468 124.732 57.7635 123.012C57.8629 121.606 58.058 120.209 58.3476 118.831C58.4545 118.239 58.604 117.719 58.7251 117.256C58.8462 116.793 58.9602 116.402 59.067 116.081C59.1615 115.747 59.2829 115.42 59.4303 115.105Z" fill="#263238"/>
<path d="M62.6641 180.985L62.9347 181.063L63.7325 181.334L66.7668 182.402L68.9607 183.186C69.7655 183.456 70.6559 183.713 71.6032 184.005C73.505 184.567 75.649 185.301 78.085 185.871L81.8815 186.847C83.2064 187.182 84.6025 187.431 86.0413 187.744C88.8904 188.4 92.0174 188.848 95.301 189.375C102.402 190.35 109.559 190.861 116.727 190.907C123.894 190.865 131.051 190.353 138.152 189.375C141.414 188.848 144.52 188.407 147.412 187.744C148.836 187.438 150.261 187.189 151.572 186.854L155.375 185.878C157.804 185.308 159.948 184.575 161.85 184.012C162.797 183.72 163.688 183.463 164.492 183.193L166.686 182.409L169.721 181.341L170.518 181.07C170.608 181.035 170.701 181.008 170.796 180.992L170.533 181.106L169.749 181.412L166.736 182.545L164.492 183.385C163.695 183.663 162.804 183.926 161.857 184.233C159.955 184.817 157.818 185.565 155.382 186.156L151.579 187.153C150.261 187.495 148.858 187.751 147.419 188.072C144.57 188.741 141.436 189.197 138.159 189.739C131.044 190.737 123.869 191.258 116.684 191.299C109.501 191.253 102.329 190.729 95.2155 189.732C91.9461 189.197 88.805 188.734 85.9558 188.065C84.5312 187.744 83.1067 187.488 81.7961 187.146L77.9924 186.149C75.5564 185.558 73.4196 184.81 71.5178 184.226C70.5704 183.919 69.6872 183.656 68.8823 183.378L66.6956 182.559L63.6826 181.426L62.8991 181.12C62.8166 181.082 62.7379 181.037 62.6641 180.985Z" fill="#263238"/>
<g opacity="0.3">
<path d="M62.9062 181.063C62.9062 181.063 69.096 168.242 116.905 167.679C164.713 167.116 170.903 181.063 170.903 181.063C170.903 181.063 122.653 204.846 62.9062 181.063Z" fill="black"/>
</g>
<path d="M106.476 80.3316C106.421 80.3368 106.367 80.3368 106.312 80.3316L105.835 80.3815C105.408 80.4242 104.781 80.4384 103.976 80.531C101.705 80.7514 99.4512 81.125 97.2305 81.6493C85.7446 84.2798 75.6136 91.0119 68.739 100.582C65.4177 105.181 62.9031 110.311 61.3028 115.754C61.0535 116.523 60.9181 117.135 60.7971 117.541L60.6617 118.012C60.6489 118.066 60.6298 118.118 60.6047 118.168C60.5953 118.114 60.5953 118.059 60.6047 118.004C60.6047 117.876 60.6617 117.719 60.7045 117.527C60.8042 117.114 60.911 116.494 61.139 115.711C61.7335 113.498 62.4954 111.333 63.4183 109.236C66.4628 102.266 71.0978 96.1068 76.9517 91.2509C82.8305 86.4317 89.7559 83.0556 97.1735 81.3929C99.4072 80.8854 101.677 80.5496 103.962 80.3886C104.774 80.3173 105.386 80.3245 105.828 80.3031H106.312C106.426 80.3173 106.476 80.3245 106.476 80.3316Z" fill="white"/>
<path d="M61.7673 135.163C61.4819 134.722 61.2612 134.243 61.112 133.739C60.2671 131.358 59.8734 128.841 59.951 126.317C59.9307 125.793 59.9932 125.269 60.1362 124.764C60.2502 124.764 60.0935 127.143 60.5493 130.021C61.0052 132.898 61.8742 135.121 61.7673 135.163Z" fill="white"/>
<path d="M49.7793 131.481C49.7793 131.481 49.6154 131.367 49.3946 131.096C49.0799 130.713 48.8098 130.294 48.5898 129.85C47.8291 128.377 47.5381 126.707 47.7558 125.064C47.9736 123.421 48.6898 121.885 49.8078 120.661C50.1352 120.286 50.5058 119.952 50.9118 119.664C51.0512 119.547 51.2104 119.455 51.3819 119.393C51.4246 119.45 50.7836 119.885 50.0072 120.818C48.9882 122.038 48.3363 123.523 48.127 125.099C47.9177 126.674 48.1597 128.278 48.8248 129.721C49.3234 130.854 49.8291 131.438 49.7793 131.481Z" fill="white"/>
<path d="M114.904 57.4387C114.348 57.3775 113.788 57.3656 113.23 57.4031C112.565 57.4614 111.923 57.6711 111.353 58.0161C110.782 58.3611 110.298 58.8322 109.937 59.3934C109.577 59.9545 109.35 60.5908 109.274 61.2533C109.198 61.9158 109.274 62.587 109.497 63.2153C109.69 63.7365 109.928 64.2395 110.21 64.7183C110.21 64.7183 110.067 64.6328 109.868 64.4049C109.594 64.0751 109.377 63.702 109.227 63.3008C108.955 62.6357 108.848 61.9149 108.913 61.1994C108.979 60.4839 109.216 59.7948 109.605 59.1904C109.993 58.586 110.522 58.084 111.145 57.7271C111.769 57.3701 112.469 57.1686 113.187 57.1395C113.613 57.11 114.042 57.1509 114.455 57.2606C114.775 57.3105 114.904 57.4173 114.904 57.4387Z" fill="white"/>
<path d="M176.986 122.841C176.907 122.926 175.803 121.865 174.137 121.067C172.47 120.269 170.953 120.034 170.967 119.92C172.128 119.892 173.276 120.172 174.293 120.732C175.364 121.18 176.294 121.909 176.986 122.841Z" fill="white"/>
<path d="M79.2895 247.541C79.257 247.498 79.2284 247.453 79.204 247.405L78.969 246.985C78.7553 246.579 78.4704 246.038 78.1 245.347C77.9148 244.991 77.7154 244.592 77.4874 244.164L76.8179 242.74C76.3335 241.707 75.7922 240.532 75.258 239.178C74.9873 238.516 74.7024 237.818 74.4032 237.099C74.1041 236.379 73.8476 235.596 73.5556 234.805C72.943 233.231 72.4231 231.5 71.8176 229.705C70.6993 226.072 69.6024 222.048 68.6408 217.774C67.6792 213.501 66.9812 209.376 66.4114 205.623C65.8415 201.869 65.4712 198.5 65.2432 195.608C65.1079 194.183 65.0224 192.887 64.9512 191.747C64.88 190.608 64.8159 189.61 64.7945 188.827C64.7731 188.043 64.7518 187.438 64.7304 186.982V186.505C64.7227 186.451 64.7227 186.395 64.7304 186.341C64.7386 186.395 64.7386 186.451 64.7304 186.505L64.7731 186.982C64.7731 187.431 64.8515 188.051 64.9013 188.82C64.9512 189.589 65.0224 190.601 65.1221 191.733C65.2219 192.866 65.3145 194.162 65.4712 195.587C65.7276 198.436 66.1834 201.826 66.7177 205.559C67.2519 209.291 68.0283 213.394 68.9685 217.667C69.9087 221.941 71.0127 225.958 72.1025 229.584C72.708 231.379 73.2137 233.103 73.812 234.677C74.0969 235.475 74.3676 236.237 74.6383 236.97L75.4645 239.064C75.9774 240.396 76.5045 241.579 76.9746 242.626L77.6156 244.05C77.8222 244.485 78.0216 244.884 78.1997 245.247L78.9975 246.914L79.1969 247.348C79.2401 247.406 79.2715 247.471 79.2895 247.541Z" fill="white"/>
<path d="M51.4164 189.468C49.6786 189.534 47.9383 189.472 46.2096 189.283C44.4727 189.222 42.7423 189.039 41.0312 188.734C42.769 188.669 44.5093 188.731 46.2381 188.92C47.975 188.98 49.7054 189.163 51.4164 189.468Z" fill="white"/>
<path d="M24.6202 174.261C23.61 172.789 22.7032 171.249 21.9064 169.652C21.0033 168.114 20.2084 166.514 19.5273 164.866C20.5345 166.34 21.4389 167.882 22.234 169.481C23.1417 171.016 23.9391 172.613 24.6202 174.261Z" fill="white"/>
<path d="M104.575 269.999C104.295 269.994 104.015 269.96 103.742 269.899C102.988 269.765 102.244 269.584 101.512 269.358C100.426 269.027 99.3644 268.62 98.3355 268.14C97.0821 267.536 95.8771 266.836 94.7313 266.046C93.5984 265.236 92.5313 264.339 91.5403 263.361C90.7376 262.556 89.9948 261.695 89.3179 260.782C88.8542 260.173 88.4329 259.533 88.0572 258.866C87.9034 258.632 87.7768 258.381 87.6797 258.118C87.7367 258.083 88.335 259.115 89.5245 260.625C90.2237 261.503 90.9779 262.336 91.7824 263.118C93.754 265.034 96.0162 266.625 98.4851 267.834C99.4936 268.321 100.531 268.747 101.591 269.109C103.414 269.721 104.589 269.928 104.575 269.999Z" fill="white"/>
<path d="M115.501 237.049C115.336 237.077 115.169 237.094 115.002 237.099C114.528 237.139 114.053 237.153 113.578 237.141C111.806 237.102 110.049 236.817 108.357 236.294C107.187 235.929 106.048 235.472 104.952 234.926C103.694 234.279 102.502 233.514 101.39 232.64C98.8157 230.662 96.7863 228.062 95.493 225.084C94.1996 222.106 93.6848 218.848 93.9969 215.616C94.113 214.213 94.3634 212.825 94.7448 211.471C95.0861 210.296 95.527 209.152 96.0625 208.052C96.8351 206.456 97.8277 204.977 99.0114 203.657C99.3288 203.296 99.6665 202.953 100.023 202.631C100.141 202.513 100.267 202.403 100.4 202.303C100.4 202.303 99.9302 202.809 99.1182 203.728C97.9784 205.068 97.0204 206.553 96.2691 208.144C95.1489 210.489 94.4818 213.024 94.3032 215.616C94.0144 218.79 94.5285 221.986 95.798 224.91C97.0676 227.834 99.0519 230.391 101.568 232.348C102.647 233.216 103.806 233.979 105.03 234.627C106.103 235.193 107.22 235.669 108.371 236.052C110.038 236.592 111.77 236.911 113.521 236.999C114.81 237.049 115.501 237.006 115.501 237.049Z" fill="white"/>
<path d="M29.2649 180.956C29.2649 181.013 28.7164 180.75 27.8403 180.543C26.668 180.286 25.4527 180.299 24.2857 180.579C23.1188 180.859 22.0303 181.399 21.1021 182.16C20.3898 182.751 20.0479 183.221 19.998 183.186C20.1935 182.714 20.4959 182.295 20.8813 181.961C21.8057 181.112 22.9314 180.514 24.1517 180.222C25.3719 179.931 26.6464 179.955 27.8546 180.294C28.3694 180.403 28.852 180.63 29.2649 180.956Z" fill="white"/>
<path d="M134.448 110.134C134.448 110.233 125.701 110.319 114.917 110.319C104.133 110.319 95.3789 110.233 95.3789 110.134C95.3789 110.034 104.126 109.948 114.917 109.948C125.708 109.948 134.448 110.02 134.448 110.134Z" fill="white"/>
<path d="M101.114 154.673C101.007 154.703 100.897 154.72 100.786 154.723L99.8314 154.808C99.4183 154.844 98.9126 154.872 98.3214 154.887C97.7302 154.901 97.0606 154.929 96.3199 154.887C94.8312 154.887 93.0647 154.78 91.1059 154.573C88.9862 154.327 86.8817 153.963 84.8022 153.483C82.7276 152.986 80.6825 152.372 78.6765 151.646C77.0422 151.047 75.4398 150.365 73.8757 149.601C73.1635 149.288 72.615 148.96 72.095 148.683C71.5751 148.405 71.1334 148.155 70.7773 147.97L69.9582 147.472C69.8611 147.418 69.7703 147.353 69.6875 147.279C69.6875 147.279 69.8015 147.279 69.9938 147.408L70.8485 147.842C71.2118 148.041 71.6605 148.277 72.1876 148.554C72.7147 148.832 73.313 149.117 73.9897 149.416C75.3288 150.043 76.9599 150.713 78.7976 151.375C82.7917 152.807 86.9351 153.782 91.1487 154.281C93.0861 154.509 94.8454 154.637 96.3199 154.673C97.0322 154.716 97.7444 154.673 98.3214 154.673C98.8983 154.673 99.4112 154.673 99.8243 154.673H100.779C100.89 154.654 101.003 154.654 101.114 154.673Z" fill="white"/>
<path d="M157.975 186.768C157.922 186.803 157.865 186.83 157.804 186.847L157.291 187.039L155.311 187.751C154.449 188.065 153.395 188.428 152.148 188.791C150.902 189.155 149.499 189.625 147.91 190.024L145.431 190.679C144.57 190.9 143.658 191.085 142.725 191.306C140.859 191.754 138.836 192.111 136.713 192.517C127.468 194.127 118.072 194.703 108.699 194.233C106.562 194.098 104.489 193.991 102.58 193.77C101.626 193.67 100.7 193.599 99.8167 193.478L97.2738 193.129C95.6498 192.937 94.1967 192.645 92.9217 192.417C91.6467 192.189 90.5427 191.975 89.6523 191.769L87.601 191.313L87.0667 191.185C87.0049 191.174 86.9449 191.155 86.8887 191.128C86.9527 191.122 87.017 191.122 87.081 191.128L87.6152 191.22L89.6808 191.612C90.5783 191.79 91.6752 191.997 92.9574 192.189C94.2395 192.381 95.6854 192.659 97.3094 192.837L99.8452 193.158C100.728 193.272 101.654 193.336 102.609 193.428C104.511 193.635 106.562 193.727 108.713 193.856C113.022 194.034 117.759 194.041 122.731 193.749C127.703 193.457 132.397 192.837 136.649 192.139C138.786 191.747 140.794 191.427 142.661 190.971C143.594 190.757 144.505 190.579 145.367 190.365L147.846 189.732C149.434 189.354 150.838 188.912 152.084 188.556C153.331 188.2 154.399 187.844 155.261 187.58L157.263 186.939L157.79 186.783L157.975 186.768Z" fill="white"/>
</svg>
