<svg width="24" height="24" viewBox="0 0 24 24" fill="none" xmlns="http://www.w3.org/2000/svg">
<rect width="24" height="24" rx="12" fill="#FCD8CA"/>
<path d="M13.1667 14.3334C13.1667 15.3659 12.7175 16.2992 12 16.935C11.3817 17.495 10.565 17.8334 9.66669 17.8334C7.73585 17.8334 6.16669 16.2642 6.16669 14.3334C6.16669 13.238 6.67542 12.2585 7.46651 11.6176C7.70228 11.4266 8.03878 11.5473 8.18753 11.8117C8.75731 12.8247 9.71717 13.5784 10.845 13.8842C11.2125 13.9892 11.5975 14.0417 12 14.0417C12.2417 14.0417 12.4748 14.0222 12.7018 13.9858C12.935 13.9485 13.1667 14.0972 13.1667 14.3334Z" fill="#FF6629"/>
<path d="M15.5 9.66675C15.5 10.1217 15.4125 10.5592 15.255 10.9559C14.8525 11.9709 13.9892 12.7526 12.9217 13.0442C12.63 13.1259 12.3208 13.1667 12 13.1667C11.6792 13.1667 11.37 13.1259 11.0783 13.0442C10.0108 12.7526 9.1475 11.9709 8.745 10.9559C8.5875 10.5592 8.5 10.1217 8.5 9.66675C8.5 7.73591 10.0692 6.16675 12 6.16675C13.9308 6.16675 15.5 7.73591 15.5 9.66675Z" fill="#FF6629"/>
<path d="M17.8334 14.3334C17.8334 16.2642 16.2642 17.8334 14.3334 17.8334C14.0003 17.8334 13.6769 17.7868 13.3711 17.6992C13.0433 17.6054 12.9825 17.1966 13.1864 16.9234C13.7386 16.1834 14.0417 15.2771 14.0417 14.3334C14.0417 14.135 14.0242 13.9367 13.995 13.75C13.9777 13.6424 14.0326 13.5366 14.1279 13.4839C14.831 13.0946 15.4167 12.5168 15.8126 11.8125C15.9614 11.5478 16.2982 11.4269 16.5341 11.6181C17.3249 12.2589 17.8334 13.2383 17.8334 14.3334Z" fill="#FF6629"/>
</svg>
