<svg width="24" height="24" viewBox="0 0 24 24" fill="none" xmlns="http://www.w3.org/2000/svg">
<rect width="24" height="24" rx="12" fill="#D9EDE1"/>
<path d="M17.67 8.66328V9.34578C17.67 9.91744 17.4425 10.4074 17.04 10.6933C16.7892 10.8799 16.48 10.9674 16.1592 10.9674C15.9609 10.9674 15.7625 10.9383 15.5584 10.8683L12.42 9.82411V15.4999C12.42 17.0283 11.1775 18.2708 9.64919 18.2708C8.12086 18.2708 6.87836 17.0283 6.87836 15.4999C6.87836 13.9716 8.12086 12.7291 9.64919 12.7291C10.3842 12.7291 11.0492 13.0208 11.545 13.4874V7.33328C11.545 6.76745 11.7784 6.27745 12.1809 5.98578C12.5834 5.69995 13.12 5.63578 13.6567 5.81078L16.235 6.67411C17.0284 6.93661 17.67 7.82911 17.67 8.66328Z" fill="#48BB78"/>
</svg>
