<svg width="24" height="24" viewBox="0 0 24 24" fill="none" xmlns="http://www.w3.org/2000/svg">
<rect width="24" height="24" rx="12" fill="#E6EEF9"/>
<path d="M11.1834 7.42091C11.1834 7.53175 11.09 7.62508 10.9792 7.62508H10.32C9.06002 7.62508 8.03335 8.65175 8.03335 9.91175V15.2959C8.03335 15.4067 7.94002 15.5001 7.82919 15.5001H7.42085C6.72669 15.5001 6.16669 14.9401 6.16669 14.2459V7.42091C6.16669 6.72675 6.72669 6.16675 7.42085 6.16675H9.92919C10.6234 6.16675 11.1834 6.72675 11.1834 7.42091Z" fill="#4286EF"/>
<path d="M17.8333 7.42091V14.2459C17.8333 14.9401 17.2733 15.5001 16.5792 15.5001H16.2116C16.1008 15.5001 16.0075 15.4067 16.0075 15.2959V9.91175C16.0075 8.65175 14.9808 7.62508 13.7208 7.62508H13.0208C12.91 7.62508 12.8167 7.53175 12.8167 7.42091C12.8167 6.72675 13.3767 6.16675 14.0708 6.16675H16.5792C17.2733 6.16675 17.8333 6.72675 17.8333 7.42091Z" fill="#4286EF"/>
<path d="M13.7208 8.5H10.32C9.53833 8.5 8.90833 9.13 8.90833 9.91167V16.4217C8.90833 17.2033 9.53833 17.8333 10.32 17.8333H11.2708C11.4342 17.8333 11.5625 17.705 11.5625 17.5417V16.0833C11.5625 15.8442 11.7608 15.6458 12 15.6458C12.2392 15.6458 12.4375 15.8442 12.4375 16.0833V17.5417C12.4375 17.705 12.5658 17.8333 12.7292 17.8333H13.7267C14.5025 17.8333 15.1325 17.2033 15.1325 16.4275V9.91167C15.1325 9.13 14.5025 8.5 13.7208 8.5ZM13.1667 13.6042H10.8333C10.5942 13.6042 10.3958 13.4058 10.3958 13.1667C10.3958 12.9275 10.5942 12.7292 10.8333 12.7292H13.1667C13.4058 12.7292 13.6042 12.9275 13.6042 13.1667C13.6042 13.4058 13.4058 13.6042 13.1667 13.6042ZM13.1667 11.8542H10.8333C10.5942 11.8542 10.3958 11.6558 10.3958 11.4167C10.3958 11.1775 10.5942 10.9792 10.8333 10.9792H13.1667C13.4058 10.9792 13.6042 11.1775 13.6042 11.4167C13.6042 11.6558 13.4058 11.8542 13.1667 11.8542Z" fill="#4286EF"/>
</svg>
