<svg width="24" height="24" viewBox="0 0 24 24" fill="none" xmlns="http://www.w3.org/2000/svg">
<rect width="24" height="24" rx="12" fill="#F5EDD1"/>
<path d="M18.0177 6.022L14.8724 5C14.8724 5.74261 14.5698 6.4548 14.0311 6.9799C13.4924 7.505 12.7618 7.8 12 7.8C11.2382 7.8 10.5076 7.505 9.96888 6.9799C9.4302 6.4548 9.12757 5.74261 9.12757 5L5.98226 6.022C5.65723 6.12756 5.38162 6.34289 5.20516 6.62914C5.02871 6.91539 4.96303 7.2537 5.01999 7.583L5.4365 10.012C5.46384 10.1764 5.55045 10.326 5.68075 10.4338C5.81106 10.5415 5.97653 10.6005 6.14742 10.6H7.69135V17.6C7.69135 18.37 8.33765 19 9.12757 19H14.8724C15.2533 19 15.6186 18.8525 15.888 18.5899C16.1573 18.3274 16.3086 17.9713 16.3086 17.6V10.6H17.8526C18.0235 10.6005 18.1889 10.5415 18.3192 10.4338C18.4496 10.326 18.5362 10.1764 18.5635 10.012L18.98 7.583C19.037 7.2537 18.9713 6.91539 18.7948 6.62914C18.6184 6.34289 18.3428 6.12756 18.0177 6.022Z" fill="#ECC94B"/>
</svg>
