<svg width="24" height="24" viewBox="0 0 24 24" fill="none" xmlns="http://www.w3.org/2000/svg">
<rect width="24" height="24" rx="12" fill="#DFD0FC"/>
<path d="M6.75 6.16675V10.2501C6.75 10.8917 7.275 11.4167 7.91667 11.4167H10.25C10.5594 11.4167 10.8562 11.2938 11.075 11.075C11.2937 10.8562 11.4167 10.5595 11.4167 10.2501V6.16675" fill="#8A4FFF"/>
<path d="M6.75 6.16675V10.2501C6.75 10.8917 7.275 11.4167 7.91667 11.4167H10.25C10.5594 11.4167 10.8562 11.2938 11.075 11.075C11.2937 10.8562 11.4167 10.5595 11.4167 10.2501V6.16675" stroke="#8A4FFF" stroke-width="0.833333" stroke-linecap="round" stroke-linejoin="round"/>
<path d="M9.08331 6.16675V17.8334V6.16675Z" fill="#8A4FFF"/>
<path d="M9.08331 6.16675V17.8334" stroke="#8A4FFF" stroke-width="0.833333" stroke-linecap="round" stroke-linejoin="round"/>
<path d="M17.25 13.7501V6.16675C16.4764 6.16675 15.7346 6.47404 15.1876 7.02102C14.6406 7.568 14.3333 8.30987 14.3333 9.08342V12.5834C14.3333 13.2251 14.8583 13.7501 15.5 13.7501H17.25ZM17.25 13.7501V17.8334V13.7501Z" fill="#8A4FFF"/>
<path d="M17.25 13.7501V6.16675C16.4764 6.16675 15.7346 6.47404 15.1876 7.02102C14.6406 7.568 14.3333 8.30987 14.3333 9.08341V12.5834C14.3333 13.2251 14.8583 13.7501 15.5 13.7501H17.25ZM17.25 13.7501V17.8334" stroke="#8A4FFF" stroke-width="0.833333" stroke-linecap="round" stroke-linejoin="round"/>
</svg>
