<svg width="23" height="24" viewBox="0 0 23 24" fill="none" xmlns="http://www.w3.org/2000/svg">
<path d="M21.3863 1.72243L16.219 0C16.219 1.25155 15.7218 2.45185 14.8368 3.33683C13.9518 4.22182 12.7516 4.71899 11.5 4.71899C10.2484 4.71899 9.04815 4.22182 8.16317 3.33683C7.27819 2.45185 6.78101 1.25155 6.78101 0L1.61371 1.72243C1.07974 1.90033 0.626942 2.26325 0.337051 2.74568C0.0471596 3.22811 -0.0607324 3.79828 0.0328479 4.35327L0.717102 8.447C0.762021 8.72414 0.904304 8.97617 1.11838 9.15781C1.33246 9.33945 1.6043 9.4388 1.88505 9.43799H4.42151V21.2355C4.42151 22.5332 5.48328 23.595 6.78101 23.595H16.219C16.8448 23.595 17.4449 23.3464 17.8874 22.9039C18.3299 22.4614 18.5785 21.8612 18.5785 21.2355V9.43799H21.1149C21.3957 9.4388 21.6675 9.33945 21.8816 9.15781C22.0957 8.97617 22.238 8.72414 22.2829 8.447L22.9672 4.35327C23.0607 3.79828 22.9528 3.22811 22.663 2.74568C22.3731 2.26325 21.9203 1.90033 21.3863 1.72243Z" fill="#ECC94B"/>
</svg>
