<svg width="40" height="40" viewBox="0 0 40 40" fill="none" xmlns="http://www.w3.org/2000/svg">
<g clip-path="url(#clip0_47_3123)">
<path d="M38.4892 16.5226L22.1736 16.5218C21.4531 16.5218 20.8691 17.1057 20.8691 17.8262V23.0383C20.8691 23.7586 21.4531 24.3426 22.1735 24.3426H31.3615C30.3554 26.9537 28.4776 29.1403 26.0818 30.5297L29.9995 37.3116C36.2841 33.677 39.9995 27.2998 39.9995 20.1609C39.9995 19.1444 39.9246 18.4177 39.7748 17.5995C39.6609 16.9779 39.1212 16.5226 38.4892 16.5226Z" fill="#167EE6"/>
<path d="M19.9991 32.1739C15.5027 32.1739 11.5774 29.7172 9.46922 26.0818L2.6875 29.9907C6.13867 35.9721 12.6038 40 19.9991 40C23.627 40 27.0502 39.0232 29.9991 37.3209V37.3116L26.0814 30.5296C24.2894 31.569 22.2156 32.1739 19.9991 32.1739Z" fill="#12B347"/>
<path d="M30 37.3209V37.3116L26.0823 30.5296C24.2902 31.5689 22.2166 32.1739 20 32.1739V40C23.6279 40 27.0512 39.0232 30 37.3209Z" fill="#0F993E"/>
<path d="M7.82609 20C7.82609 17.7837 8.43094 15.7101 9.47008 13.9182L2.68836 10.0093C0.976719 12.9489 0 16.3628 0 20C0 23.6372 0.976719 27.0511 2.68836 29.9907L9.47008 26.0818C8.43094 24.2898 7.82609 22.2163 7.82609 20Z" fill="#FFD500"/>
<path d="M19.9991 7.82609C22.9312 7.82609 25.6245 8.86797 27.7282 10.601C28.2472 11.0285 29.0015 10.9977 29.4769 10.5223L33.1698 6.8293C33.7092 6.28992 33.6708 5.40703 33.0946 4.90719C29.57 1.84945 24.9841 0 19.9991 0C12.6038 0 6.13867 4.02789 2.6875 10.0093L9.46922 13.9182C11.5774 10.2828 15.5027 7.82609 19.9991 7.82609Z" fill="#FF4B26"/>
<path d="M27.7291 10.601C28.248 11.0285 29.0024 10.9977 29.4777 10.5223L33.1707 6.8293C33.71 6.28992 33.6716 5.40703 33.0955 4.90719C29.5709 1.84938 24.9849 0 20 0V7.82609C22.932 7.82609 25.6254 8.86797 27.7291 10.601Z" fill="#D93F21"/>
</g>
<defs>
<clipPath id="clip0_47_3123">
<rect width="40" height="40" fill="white"/>
</clipPath>
</defs>
</svg>
